<?xml version="1.0" encoding="UTF-8"?>
<svg width="3300px" height="2200px" viewBox="0 0 3300 2200" version="1.1" xmlns="http://www.w3.org/2000/svg" xmlns:xlink="http://www.w3.org/1999/xlink">
    <title>railway.wagon</title>
    <g id="Page-1" stroke="none" stroke-width="1" fill="none" fill-rule="evenodd">
        <g id="railway.wagon">
            <g id="Notes">
                <rect id="artboard" fill="#FFFFFF" fill-rule="nonzero" x="0" y="0" width="3300" height="2200"></rect>
                <line x1="263" y1="292" x2="3036" y2="292" id="Path" stroke="#000000" stroke-width="0.5"></line>
                <text id="Weight/Scale-Variations" fill="#000000" fill-rule="nonzero" font-family="Helvetica" font-size="13" font-weight="normal">
                    <tspan x="263" y="322">Weight/Scale Variations</tspan>
                </text>
                <text id="Ultralight" fill="#000000" fill-rule="nonzero" font-family="Helvetica" font-size="13" font-weight="normal">
                    <tspan x="533.711" y="322">Ultralight</tspan>
                </text>
                <text id="Thin" fill="#000000" fill-rule="nonzero" font-family="Helvetica" font-size="13" font-weight="normal">
                    <tspan x="843.422" y="322">Thin</tspan>
                </text>
                <text id="Light" fill="#000000" fill-rule="nonzero" font-family="Helvetica" font-size="13" font-weight="normal">
                    <tspan x="1138.63" y="322">Light</tspan>
                </text>
                <text id="Regular" fill="#000000" fill-rule="nonzero" font-family="Helvetica" font-size="13" font-weight="normal">
                    <tspan x="1426.84" y="322">Regular</tspan>
                </text>
                <text id="Medium" fill="#000000" fill-rule="nonzero" font-family="Helvetica" font-size="13" font-weight="normal">
                    <tspan x="1723.06" y="322">Medium</tspan>
                </text>
                <text id="Semibold" fill="#000000" fill-rule="nonzero" font-family="Helvetica" font-size="13" font-weight="normal">
                    <tspan x="2015.77" y="322">Semibold</tspan>
                </text>
                <text id="Bold" fill="#000000" fill-rule="nonzero" font-family="Helvetica" font-size="13" font-weight="normal">
                    <tspan x="2326.48" y="322">Bold</tspan>
                </text>
                <text id="Heavy" fill="#000000" fill-rule="nonzero" font-family="Helvetica" font-size="13" font-weight="normal">
                    <tspan x="2618.19" y="322">Heavy</tspan>
                </text>
                <text id="Black" fill="#000000" fill-rule="nonzero" font-family="Helvetica" font-size="13" font-weight="normal">
                    <tspan x="2917.4" y="322">Black</tspan>
                </text>
                <line x1="263" y1="1903" x2="3036" y2="1903" id="Path" stroke="#000000" stroke-width="0.5"></line>
                <g id="Group" transform="translate(264.367190, 1918.068400)" fill="#000000" fill-rule="nonzero">
                    <path d="M7.88086,15.761678 C8.96156,15.761678 9.97717667,15.5566 10.92771,15.146444 C11.8782433,14.7362873 12.7164767,14.166626 13.44241,13.43746 C14.1682767,12.7082933 14.7379433,11.86845 15.15141,10.91793 C15.56481,9.96741 15.77151,8.95504 15.77151,7.88082 C15.77151,6.8066 15.56481,5.79422667 15.15141,4.8437 C14.7379433,3.89316667 14.1666433,3.05333333 13.43751,2.3242 C12.70831,1.595 11.8684767,1.02533333 10.91801,0.6152 C9.96747667,0.205066667 8.95183667,0 7.87109,0 C6.79687,0 5.7845,0.205066667 4.83398,0.6152 C3.88346,1.02533333 3.04687333,1.595 2.32422,2.3242 C1.60156,3.05333333 1.03352333,3.89316667 0.62011,4.8437 C0.206703333,5.79422667 -8.8817842e-16,6.8066 -8.8817842e-16,7.88082 C-8.8817842e-16,8.95504 0.206703333,9.96741 0.62011,10.91793 C1.03352333,11.86845 1.60318667,12.7082933 2.3291,13.43746 C3.05501333,14.166626 3.89323,14.7362873 4.84375,15.146444 C5.79427,15.5566 6.80664,15.761678 7.88086,15.761678 Z M7.88086,14.277303 C6.99544,14.277303 6.16699,14.1129153 5.39551,13.78414 C4.62402333,13.4553667 3.94694,12.99801 3.36426,12.41207 C2.78157333,11.82613 2.32584333,11.14579 1.99707,10.37105 C1.66829,9.59631 1.5039,8.76623333 1.5039,7.88082 C1.5039,6.9954 1.66666333,6.16532 1.99219,5.39058 C2.31771,4.61586 2.77181,3.93553333 3.35449,3.3496 C3.93717,2.76366667 4.61425333,2.3063 5.38574,1.9775 C6.15722667,1.6487 6.98567667,1.4843 7.87109,1.4843 C8.76303667,1.4843 9.59474333,1.6487 10.36621,1.9775 C11.1376767,2.3063 11.8163767,2.76366667 12.40231,3.3496 C12.9882433,3.93553333 13.4472433,4.61586 13.77931,5.39058 C14.11131,6.16532 14.27731,6.9954 14.27731,7.88082 C14.27731,8.76623333 14.1129433,9.59631 13.78421,10.37105 C13.45541,11.14579 12.9996767,11.82613 12.41701,12.41207 C11.8343433,12.99801 11.15561,13.4553667 10.38081,13.78414 C9.60607667,14.1129153 8.77276,14.277303 7.88086,14.277303 Z M4.47265,7.89058 C4.47265,8.10542667 4.54101,8.27958333 4.67773,8.41305 C4.81445,8.54651 4.99674333,8.61324 5.22461,8.61324 L7.13867,8.61324 L7.13867,10.53707 C7.13867,10.7584233 7.2054,10.93746 7.33886,11.07418 C7.47232667,11.2109 7.64648333,11.27926 7.86133,11.27926 C8.08268333,11.27926 8.26171667,11.2109 8.39843,11.07418 C8.53515,10.93746 8.60351,10.7584233 8.60351,10.53707 L8.60351,8.61324 L10.52731,8.61324 C10.74871,8.61324 10.9277433,8.54651 11.06441,8.41305 C11.2011433,8.27958333 11.26951,8.10542667 11.26951,7.89058 C11.26951,7.66922667 11.2011433,7.49019333 11.06441,7.35348 C10.9277433,7.21676 10.74871,7.1484 10.52731,7.1484 L8.60351,7.1484 L8.60351,5.23433 C8.60351,5.00644333 8.53515,4.82416667 8.39843,4.6875 C8.26171667,4.55076667 8.08268333,4.4824 7.86133,4.4824 C7.64648333,4.4824 7.47232667,4.55076667 7.33886,4.6875 C7.2054,4.82416667 7.13867,5.00644333 7.13867,5.23433 L7.13867,7.1484 L5.22461,7.1484 C4.99674333,7.1484 4.81445,7.21676 4.67773,7.35348 C4.54101,7.49019333 4.47265,7.66922667 4.47265,7.89058 Z" id="Shape"></path>
                </g>
                <g id="Group" transform="translate(283.615050, 1915.988300)" fill="#000000" fill-rule="nonzero">
                    <path d="M9.96095,19.92186 C11.3216167,19.92186 12.60255,19.6614433 13.80375,19.14061 C15.0048833,18.6197767 16.06445,17.9003744 16.98245,16.9824031 C17.9003833,16.0644344 18.6197833,15.0048633 19.14065,13.80369 C19.66145,12.6025167 19.92185,11.3215933 19.92185,9.96092 C19.92185,8.60024 19.66145,7.3193 19.14065,6.1181 C18.6197833,4.91696667 17.9003833,3.8574 16.98245,2.9394 C16.06445,2.02146667 15.00325,1.30206667 13.79885,0.7812 C12.5943833,0.2604 11.3118167,0 9.95115,0 C8.59048333,0 7.30956667,0.2604 6.1084,0.7812 C4.90722667,1.30206667 3.84928333,2.02146667 2.93457,2.9394 C2.01985667,3.8574 1.30208333,4.91696667 0.78125,6.1181 C0.260416667,7.3193 8.8817842e-16,8.60024 8.8817842e-16,9.96092 C8.8817842e-16,11.3215933 0.260416667,12.6025167 0.78125,13.80369 C1.30208333,15.0048633 2.02148333,16.0644344 2.93945,16.9824031 C3.85741667,17.9003744 4.91698667,18.6197767 6.11816,19.14061 C7.31933333,19.6614433 8.60026333,19.92186 9.96095,19.92186 Z M9.96095,18.2617 C8.80859667,18.2617 7.73111667,18.0468563 6.72851,17.617169 C5.72591,17.1874813 4.84537667,16.593405 4.08691,15.83494 C3.32845,15.07648 2.73600333,14.1959467 2.30957,13.19334 C1.88313667,12.1907333 1.66992,11.11326 1.66992,9.96092 C1.66992,8.80857333 1.88313667,7.7311 2.30957,6.7285 C2.73600333,5.7259 3.32682333,4.84373333 4.08203,4.082 C4.83723667,3.32026667 5.71614333,2.7262 6.71875,2.2998 C7.72135,1.87333333 8.79881667,1.6601 9.95115,1.6601 C11.1034833,1.6601 12.18095,1.87333333 13.18355,2.2998 C14.18615,2.7262 15.0683167,3.32026667 15.83005,4.082 C16.5917833,4.84373333 17.1874833,5.7259 17.61715,6.7285 C18.0468833,7.7311 18.26175,8.80857333 18.26175,9.96092 C18.26175,11.11326 18.0485167,12.1907333 17.62205,13.19334 C17.19565,14.1959467 16.6032167,15.07648 15.84475,15.83494 C15.0862833,16.593405 14.2041167,17.1874813 13.19825,17.617169 C12.1923833,18.0468563 11.1132833,18.2617 9.96095,18.2617 Z M5.64453,9.97068 C5.64453,10.20506 5.72265333,10.39712 5.8789,10.54686 C6.03515333,10.6966 6.23697667,10.77147 6.48437,10.77147 L9.13085,10.77147 L9.13085,13.43748 C9.13085,13.6783667 9.20571667,13.8753067 9.35545,14.0283 C9.50518333,14.1812933 9.69725,14.25779 9.93165,14.25779 C10.17905,14.25779 10.3808833,14.1812933 10.53715,14.0283 C10.69335,13.8753067 10.77145,13.6783667 10.77145,13.43748 L10.77145,10.77147 L13.42775,10.77147 C13.6686167,10.77147 13.8671833,10.6966 14.02345,10.54686 C14.1797167,10.39712 14.25785,10.20506 14.25785,9.97068 C14.25785,9.72328667 14.1797167,9.52309333 14.02345,9.3701 C13.8671833,9.21710667 13.6686167,9.14061 13.42775,9.14061 L10.77145,9.14061 L10.77145,6.4941 C10.77145,6.24023333 10.69335,6.0368 10.53715,5.8838 C10.3808833,5.7308 10.17905,5.6543 9.93165,5.6543 C9.69725,5.6543 9.50518333,5.7308 9.35545,5.8838 C9.20571667,6.0368 9.13085,6.24023333 9.13085,6.4941 L9.13085,9.14061 L6.48437,9.14061 C6.23046333,9.14061 6.02701333,9.21710667 5.87402,9.3701 C5.72102667,9.52309333 5.64453,9.72328667 5.64453,9.97068 Z" id="Shape"></path>
                </g>
                <g id="Group" transform="translate(307.901860, 1913.224600)" fill="#000000" fill-rule="nonzero">
                    <path d="M12.71484,25.43946 C14.10804,25.43946 15.4378067,25.22299 16.70414,24.79005 C17.9704067,24.3571033 19.13414,23.7500067 20.19534,22.96876 C21.25654,22.1875067 22.1793733,21.2662827 22.96384,20.205088 C23.7483733,19.1438893 24.3571067,17.9785233 24.79004,16.70899 C25.2229733,15.4394633 25.43944,14.11134 25.43944,12.72462 C25.43944,11.3313933 25.2229733,10.0016533 24.79004,8.7354 C24.3571067,7.46906667 23.7483733,6.30533333 22.96384,5.2442 C22.1793733,4.183 21.25654,3.26013333 20.19534,2.4756 C19.13414,1.69106667 17.9687733,1.08233333 16.69924,0.6494 C15.4297067,0.216466667 14.0983067,0 12.70504,0 C11.31184,0 9.98210667,0.216466667 8.71584,0.6494 C7.44955333,1.08233333 6.28743667,1.69106667 5.22949,2.4756 C4.17155,3.26013333 3.25032667,4.183 2.46582,5.2442 C1.68131333,6.30533333 1.07421667,7.46906667 0.64453,8.7354 C0.214843333,10.0016533 0,11.3313933 0,12.72462 C0,14.11134 0.21647,15.4394633 0.64941,16.70899 C1.08235667,17.9785233 1.68945333,19.1438893 2.4707,20.205088 C3.25195333,21.2662827 4.17317667,22.1875067 5.23437,22.96876 C6.29557,23.7500067 7.45929333,24.3571033 8.72554,24.79005 C9.99187333,25.22299 11.32164,25.43946 12.71484,25.43946 Z M12.71484,23.62306 C11.51044,23.62306 10.3629733,23.43914 9.27244,23.0713 C8.18196,22.70346 7.18424667,22.18751 6.2793,21.52345 C5.37434667,20.8593853 4.58821333,20.0732513 3.9209,19.165048 C3.25358,18.2568427 2.73763,17.2574933 2.37305,16.167 C2.00846333,15.0765067 1.82617,13.9290467 1.82617,12.72462 C1.82617,11.51368 2.00846333,10.3629733 2.37305,9.2725 C2.73763,8.18196667 3.25195333,7.1826 3.91602,6.2744 C4.58008,5.3662 5.36458333,4.58006667 6.26953,3.916 C7.17447667,3.25193333 8.17221333,2.73763333 9.26274,2.3731 C10.3532067,2.0085 11.50064,1.8262 12.70504,1.8262 C13.9159733,1.8262 15.0667067,2.0085 16.15724,2.3731 C17.2477067,2.73763333 18.24704,3.25193333 19.15524,3.916 C20.06344,4.58006667 20.8495733,5.3662 21.51364,6.2744 C22.1777067,7.1826 22.6936733,8.18196667 23.06154,9.2725 C23.42934,10.3629733 23.6134125,11.51368 23.6134125,12.72462 C23.6197733,13.9290467 23.44074,15.0765067 23.07614,16.167 C22.7116067,17.2574933 22.1956733,18.2568427 21.52834,19.165048 C20.8610067,20.0732513 20.07324,20.8593853 19.16504,21.52345 C18.25684,22.18751 17.2575067,22.70346 16.16704,23.0713 C15.0765067,23.43914 13.9257733,23.62306 12.71484,23.62306 Z M7.19726,12.73438 C7.19726,12.9882867 7.28352333,13.19825 7.45605,13.36427 C7.62857667,13.5302833 7.84830667,13.61329 8.11524,13.61329 L11.80664,13.61329 L11.80664,17.31446 C11.80664,17.5813867 11.88964,17.7994867 12.05564,17.96876 C12.22164,18.1380333 12.4316067,18.22267 12.68554,18.22267 C12.9590067,18.22267 13.1803733,18.1380333 13.34964,17.96876 C13.5189067,17.7994867 13.60354,17.5813867 13.60354,17.31446 L13.60354,13.61329 L17.30464,13.61329 C17.5715733,13.61329 17.7896733,13.5302833 17.95894,13.36427 C18.1282733,13.19825 18.21294,12.9882867 18.21294,12.73438 C18.21294,12.4609467 18.1282733,12.2395933 17.95894,12.07032 C17.7896733,11.9010533 17.5715733,11.81642 17.30464,11.81642 L13.60354,11.81642 L13.60354,8.125 C13.60354,7.8516 13.5189067,7.63023333 13.34964,7.4609 C13.1803733,7.29163333 12.9590067,7.207 12.68554,7.207 C12.4316067,7.207 12.22164,7.29326667 12.05564,7.4658 C11.88964,7.63833333 11.80664,7.85806667 11.80664,8.125 L11.80664,11.81642 L8.11524,11.81642 C7.8418,11.81642 7.62044333,11.9010533 7.45117,12.07032 C7.28189667,12.2395933 7.19726,12.4609467 7.19726,12.73438 Z" id="Shape"></path>
                </g>
                <text id="Design-Variations" fill="#000000" fill-rule="nonzero" font-family="Helvetica" font-size="13" font-weight="normal">
                    <tspan x="263" y="1953">Design Variations</tspan>
                </text>
                <text id="Symbols-are-supported-in-up-to-nine-weights-and-three-scales." fill="#000000" fill-rule="nonzero" font-family="Helvetica" font-size="13" font-weight="normal">
                    <tspan x="263" y="1971">Symbols are supported in up to nine weights and three scales.</tspan>
                </text>
                <text id="For-optimal-layout-with-text-and-other-symbols,-vertically-align" fill="#000000" fill-rule="nonzero" font-family="Helvetica" font-size="13" font-weight="normal">
                    <tspan x="263" y="1989">For optimal layout with text and other symbols, vertically align</tspan>
                </text>
                <text id="symbols-with-the-adjacent-text." fill="#000000" fill-rule="nonzero" font-family="Helvetica" font-size="13" font-weight="normal">
                    <tspan x="263" y="2007">symbols with the adjacent text.</tspan>
                </text>
                <line x1="776" y1="1919" x2="776" y2="1933" id="Path" stroke="#00AEEF" stroke-width="0.5"></line>
                <g id="Group" transform="translate(778.490230, 1918.732400)" fill="#000000" fill-rule="nonzero">
                    <path d="M0.82032,14.42385 C1.08073333,14.42385 1.28255667,14.3685115 1.42579,14.2578344 C1.56901667,14.1471575 1.68620333,13.9551 1.77735,13.681662 L3.03711,10.2344 L8.79887,10.2344 L10.05857,13.681662 C10.1497033,13.9551 10.2669033,14.1471575 10.41017,14.2578344 C10.55337,14.3685115 10.7519367,14.42385 11.00587,14.42385 C11.26627,14.42385 11.47297,14.3522354 11.62597,14.2090062 C11.77897,14.0657767 11.85547,13.8704643 11.85547,13.623069 C11.85547,13.473329 11.81967,13.297546 11.74807,13.09572 L7.16797,0.8985 C7.05078333,0.598966667 6.89128,0.374333333 6.68946,0.2246 C6.48763333,0.0748666667 6.23047,0 5.91797,0 C5.31250333,0 4.90234667,0.296233333 4.6875,0.8887 L0.10743,13.10549 C0.03581,13.3073133 -4.4408921e-16,13.4830947 -4.4408921e-16,13.632834 C-4.4408921e-16,13.88023 0.0732433333,14.073915 0.21973,14.2138891 C0.366216667,14.353863 0.566413333,14.42385 0.82032,14.42385 Z M3.51563,8.75002 L5.88868,2.1778 L5.9375,2.1778 L8.31057,8.75002 L3.51563,8.75002 Z" id="Shape"></path>
                </g>
                <line x1="793.197" y1="1919" x2="793.197" y2="1933" id="Path" stroke="#00AEEF" stroke-width="0.5"></line>
                <text id="Margins" fill="#000000" fill-rule="nonzero" font-family="Helvetica" font-size="13" font-weight="normal">
                    <tspan x="776" y="1953">Margins</tspan>
                </text>
                <text id="Leading-and-trailing-margins-on-the-left-and-right-side-of-each-symbol" fill="#000000" fill-rule="nonzero" font-family="Helvetica" font-size="13" font-weight="normal">
                    <tspan x="776" y="1971">Leading and trailing margins on the left and right side of each symbol</tspan>
                </text>
                <text id="can-be-adjusted-by-modifying-the-x-location-of-the-margin-guidelines." fill="#000000" fill-rule="nonzero" font-family="Helvetica" font-size="13" font-weight="normal">
                    <tspan x="776" y="1989">can be adjusted by modifying the x-location of the margin guidelines.</tspan>
                </text>
                <text id="Modifications-are-automatically-applied-proportionally-to-all" fill="#000000" fill-rule="nonzero" font-family="Helvetica" font-size="13" font-weight="normal">
                    <tspan x="776" y="2007">Modifications are automatically applied proportionally to all</tspan>
                </text>
                <text id="scales-and-weights." fill="#000000" fill-rule="nonzero" font-family="Helvetica" font-size="13" font-weight="normal">
                    <tspan x="776" y="2025">scales and weights.</tspan>
                </text>
                <g id="Group" transform="translate(1291.246849, 1914.517550)" fill="#000000" fill-rule="nonzero">
                    <path d="M0.594951479,20.3476805 L2.29417148,22.0566705 C2.72385815,22.4928705 3.17795815,22.6946938 3.65647148,22.6621405 C4.13498481,22.6295872 4.60536148,22.3561505 5.06760148,21.8418305 L15.7609515,10.0547205 L14.7941515,9.07815049 L4.17893148,20.7578405 C4.00315148,20.9596605 3.82574148,21.0735938 3.64670148,21.0996405 C3.46766815,21.1256805 3.26096481,21.0215138 3.02659148,20.7871405 L1.85471148,19.6250305 C1.62033815,19.3906545 1.51780148,19.1839482 1.54710148,19.0049115 C1.57639481,18.8258748 1.69195148,18.6452108 1.89377148,18.4629193 L13.3683515,7.66215049 L12.3918515,6.69535049 L0.800031479,17.5840125 C0.305238146,18.0397418 0.039938146,18.5052368 0.00413147929,18.9804975 C-0.0316751874,19.4557595 0.165264813,19.9114872 0.594951479,20.3476805 Z M7.01096148,2.15435049 C6.80262815,2.35615049 6.68544148,2.58725049 6.65940148,2.84765049 C6.63336148,3.10811716 6.67893481,3.33598382 6.79612148,3.53125049 C6.91330815,3.71358382 7.08420481,3.85031716 7.30881148,3.94145049 C7.53342481,4.03258382 7.80850481,4.03908382 8.13405148,3.96095049 C8.86318481,3.79168382 9.60211815,3.72171716 10.3508515,3.75105049 C11.0995181,3.78031716 11.8319181,4.02931716 12.5480515,4.49805049 L11.9621515,5.95315049 C11.7928848,6.36981716 11.7456848,6.73278382 11.8205515,7.04205049 C11.8954181,7.35125049 12.0663181,7.64258382 12.3332515,7.91605049 L14.6281515,10.2305005 C14.8690181,10.4778938 15.1033848,10.6211205 15.3312515,10.6601805 C15.5591181,10.6992472 15.8130181,10.6927372 16.0929515,10.6406505 L17.1574515,10.4453405 L17.8215515,11.1191705 L17.7824515,11.6758105 C17.7629181,11.9232038 17.7938515,12.1510672 17.8752515,12.3594005 C17.9565848,12.5677338 18.1177181,12.7923438 18.3586515,13.0332305 L19.1203515,13.7754205 C19.3612181,14.0163072 19.6232515,14.1416338 19.9064515,14.1514005 C20.1896515,14.1611605 20.4484515,14.0488538 20.6828515,13.8144805 L23.5929515,10.8945605 C23.8273515,10.6601872 23.9412848,10.4046538 23.9347515,10.1279605 C23.9282848,9.85126716 23.8045848,9.59247716 23.5636515,9.35159049 L22.7922515,8.58987049 C22.5578515,8.34899049 22.3381181,8.18461716 22.1330515,8.09675049 C21.9279848,8.00881716 21.7049848,7.97461716 21.4640515,7.99415049 L20.8879515,8.04295049 L20.2433515,7.40825049 L20.4875515,6.28515049 C20.5526181,6.00521716 20.5395848,5.74318382 20.4484515,5.49905049 C20.3573181,5.25491716 20.1652515,4.98635049 19.8722515,4.69335049 L17.6750515,2.50585049 C16.8417181,1.67905049 15.9546515,1.05895049 15.0138515,0.64555049 C14.0731181,0.23215049 13.1258515,0.0173171567 12.1720515,0.00105049002 C11.2183181,-0.0152828433 10.3003515,0.15885049 9.41815148,0.52345049 C8.53601815,0.88805049 7.73362148,1.43168382 7.01096148,2.15435049 Z M8.50515148,2.52545049 C9.11061815,2.08271716 9.76001815,1.76695049 10.4533515,1.57815049 C11.1466848,1.38935049 11.8481848,1.32911716 12.5578515,1.39745049 C13.2674515,1.46585049 13.9559181,1.65628382 14.6232515,1.96875049 C15.2905848,2.28128382 15.9009515,2.71748382 16.4543515,3.27735049 L18.8859515,5.68945049 C19.0031515,5.80665049 19.0763848,5.92058382 19.1056515,6.03125049 C19.1349848,6.14191716 19.1301181,6.28191716 19.0910515,6.45125049 L18.7687515,7.93555049 L20.2726515,9.41995049 L21.2590515,9.36136049 C21.3827181,9.35484716 21.4771181,9.36298382 21.5422515,9.38577049 C21.6073181,9.40855716 21.6886848,9.46877716 21.7863515,9.56643049 L22.3625515,10.1426105 L19.9211515,12.5840105 L19.3449515,12.0078405 C19.2472848,11.9101872 19.1854181,11.8288072 19.1593515,11.7637005 C19.1333515,11.6985938 19.1236181,11.6009372 19.1301515,11.4707305 L19.1984515,10.4941705 L17.7043515,9.00979049 L16.1808515,9.26370049 C16.0181181,9.29625382 15.8895515,9.30113716 15.7951515,9.27835049 C15.7007515,9.25556382 15.5916848,9.18557716 15.4679515,9.06839049 L13.4660515,7.06645049 C13.3358515,6.94925049 13.2626181,6.83695049 13.2463515,6.72955049 C13.2300848,6.62208382 13.2609848,6.47721716 13.3390515,6.29495049 L14.2179515,4.20515049 C13.4367515,3.47595049 12.5578515,2.97138382 11.5812515,2.69145049 C10.6047181,2.41151716 9.60861815,2.42128382 8.59295148,2.72075049 C8.51488481,2.74028382 8.46445148,2.72561716 8.44165148,2.67675049 C8.41885148,2.62795049 8.44001815,2.57751716 8.50515148,2.52545049 Z" id="Shape"></path>
                </g>
                <text id="Exporting" fill="#000000" fill-rule="nonzero" font-family="Helvetica" font-size="13" font-weight="normal">
                    <tspan x="1289" y="1953">Exporting</tspan>
                </text>
                <text id="Symbols-should-be-outlined-when-exporting-to-ensure-the" fill="#000000" fill-rule="nonzero" font-family="Helvetica" font-size="13" font-weight="normal">
                    <tspan x="1289" y="1971">Symbols should be outlined when exporting to ensure the</tspan>
                </text>
                <text id="design-is-preserved-when-submitting-to-Xcode." fill="#000000" fill-rule="nonzero" font-family="Helvetica" font-size="13" font-weight="normal">
                    <tspan x="1289" y="1989">design is preserved when submitting to Xcode.</tspan>
                </text>
                <text id="template-version" fill="#000000" fill-rule="nonzero" font-family="Helvetica" font-size="13" font-weight="normal">
                    <tspan x="2952" y="1933">Template v.3.0</tspan>
                </text>
                <text id="Requires-Xcode-13-or-greater" fill="#000000" fill-rule="nonzero" font-family="Helvetica" font-size="13" font-weight="normal">
                    <tspan x="2865" y="1951">Requires Xcode 13 or greater</tspan>
                </text>
                <text id="descriptive-name" fill="#000000" fill-rule="nonzero" font-family="Helvetica" font-size="13" font-weight="normal">
                    <tspan x="2859" y="1969">Generated from railway.wagon</tspan>
                </text>
                <text id="Typeset-at-100-points" fill="#000000" fill-rule="nonzero" font-family="Helvetica" font-size="13" font-weight="normal">
                    <tspan x="2912" y="1987">Typeset at 100 points</tspan>
                </text>
                <text id="Small" fill="#000000" fill-rule="nonzero" font-family="Helvetica" font-size="13" font-weight="normal">
                    <tspan x="263" y="726">Small</tspan>
                </text>
                <text id="Medium" fill="#000000" fill-rule="nonzero" font-family="Helvetica" font-size="13" font-weight="normal">
                    <tspan x="263" y="1156">Medium</tspan>
                </text>
                <text id="Large" fill="#000000" fill-rule="nonzero" font-family="Helvetica" font-size="13" font-weight="normal">
                    <tspan x="263" y="1586">Large</tspan>
                </text>
            </g>
            <g id="Guides" transform="translate(263.000000, 600.784000)">
                <g id="H-reference" transform="translate(76.976562, 24.757000)" fill="#27AAE1" fill-rule="nonzero">
                    <path d="M-1.22124533e-15,70.459 L2.685548,70.459 L28.369138,3.3203 L29.052738,3.3203 L29.052738,0 L27.148438,0 L-1.22124533e-15,70.459 Z M10.693338,45.9961 L45.996138,45.9961 L45.263638,43.75 L11.474638,43.75 L10.693338,45.9961 Z M54.150438,70.459 L56.787138,70.459 L29.638638,0 L28.466838,0 L28.466838,3.3203 L54.150438,70.459 Z" id="Shape"></path>
                </g>
                <line x1="0" y1="95.216" x2="2773" y2="95.216" id="Baseline-S" stroke="#27AAE1" stroke-width="0.5"></line>
                <line x1="0" y1="24.757" x2="2773" y2="24.757" id="Capline-S" stroke="#27AAE1" stroke-width="0.5"></line>
                <g id="H-reference" transform="translate(76.976562, 454.757000)" fill="#27AAE1" fill-rule="nonzero">
                    <path d="M-1.22124533e-15,70.459 L2.685548,70.459 L28.369138,3.3203 L29.052738,3.3203 L29.052738,0 L27.148438,0 L-1.22124533e-15,70.459 Z M10.693338,45.9961 L45.996138,45.9961 L45.263638,43.75 L11.474638,43.75 L10.693338,45.9961 Z M54.150438,70.459 L56.787138,70.459 L29.638638,0 L28.466838,0 L28.466838,3.3203 L54.150438,70.459 Z" id="Shape"></path>
                </g>
                <line x1="0" y1="525.216" x2="2773" y2="525.216" id="Baseline-M" stroke="#27AAE1" stroke-width="0.5"></line>
                <line x1="0" y1="454.756" x2="2773" y2="454.756" id="Capline-M" stroke="#27AAE1" stroke-width="0.5"></line>
                <g id="H-reference" transform="translate(76.976562, 884.757000)" fill="#27AAE1" fill-rule="nonzero">
                    <path d="M-1.22124533e-15,70.459 L2.685548,70.459 L28.369138,3.3203 L29.052738,3.3203 L29.052738,0 L27.148438,0 L-1.22124533e-15,70.459 Z M10.693338,45.9961 L45.996138,45.9961 L45.263638,43.75 L11.474638,43.75 L10.693338,45.9961 Z M54.150438,70.459 L56.787138,70.459 L29.638638,0 L28.466838,0 L28.466838,3.3203 L54.150438,70.459 Z" id="Shape"></path>
                </g>
                <line x1="0" y1="955.216" x2="2773" y2="955.216" id="Baseline-L" stroke="#27AAE1" stroke-width="0.5"></line>
                <line x1="0" y1="884.756" x2="2773" y2="884.756" id="Capline-L" stroke="#27AAE1" stroke-width="0.5"></line>
                <line x1="254.42" y1="-1.13686838e-13" x2="254.42" y2="119.337" id="left-margin-Ultralight-S" stroke="#00AEEF" stroke-width="0.5"></line>
                <line x1="339.002" y1="-1.13686838e-13" x2="339.002" y2="119.337" id="right-margin-Ultralight-S" stroke="#00AEEF" stroke-width="0.5"></line>
                <line x1="1141.55" y1="-1.13686838e-13" x2="1141.55" y2="119.337" id="left-margin-Regular-S" stroke="#00AEEF" stroke-width="0.5"></line>
                <line x1="1232.14" y1="-1.13686838e-13" x2="1232.14" y2="119.337" id="right-margin-Regular-S" stroke="#00AEEF" stroke-width="0.5"></line>
                <line x1="2618.69" y1="-1.13686838e-13" x2="2618.69" y2="119.337" id="left-margin-Black-S" stroke="#00AEEF" stroke-width="0.5"></line>
                <line x1="2722.11" y1="-1.13686838e-13" x2="2722.11" y2="119.337" id="right-margin-Black-S" stroke="#00AEEF" stroke-width="0.5"></line>
            </g>
            <g id="Symbols" transform="translate(527.435600, 634.000000)" fill="#000000" fill-rule="nonzero">
                <g id="Black-S" transform="translate(2364.270000, 0.000000)">
                    <path d="M18.6035,65.7168 L64.7949,65.7168 C68.7011667,65.7168 72.0377667,64.97624 74.8047,63.49512 C77.5716333,62.0139987 79.6956667,59.8818353 81.1768,57.09863 C82.6579333,54.31543 83.3985,50.9869867 83.3985,47.1133 L83.3985,18 L0,18 L0,47.1133 C0,50.9869867 0.740566667,54.31543 2.2217,57.09863 C3.70283333,59.8818353 5.835,62.0139987 8.6182,63.49512 C11.4014,64.97624 14.7298333,65.7168 18.6035,65.7168 Z M20.2637,54.19336 C18.4082333,54.19336 16.8131667,53.8352867 15.4785,53.11914 C14.1439,52.40298 13.1185333,51.3694667 12.4024,50.0186 C11.6862667,48.6676667 11.3282,47.0482 11.3282,45.1602 L11.3282,28.40979 L72.0703,28.40979 L72.0703,45.1602 C72.0703,47.0482 71.7122333,48.6676667 70.9961,50.0186 C70.2799667,51.3694667 69.2627333,52.40298 67.9444,53.11914 C66.626,53.8352867 65.0228,54.19336 63.1348,54.19336 L20.2637,54.19336 Z M8.5449,84.0273 L12.1094,84.0273 C13.8672,84.0273 15.2344,83.2623333 16.211,81.7324 L30.5176,58.73438 L17.627,58.73438 L5.5664,78.0703 C4.85026667,79.2421667 4.7282,80.5279667 5.2002,81.9277 C5.6722,83.3274333 6.7871,84.0273 8.5449,84.0273 Z M14.0625,78.6074 L67.8223,78.6074 L67.8223,69.23242 L14.0625,69.23242 L14.0625,78.6074 Z M69.7754,84.0273 L72.3633,84.0273 C74.1211,84.0273 75.3825,83.2949 76.1475,81.8301 C76.9124333,80.3652333 76.8229,78.8841 75.8789,77.3867 L64.2578,58.73438 L51.3672,58.73438 L65.6739,81.7324 C66.6504333,83.2623333 68.0176,84.0273 69.7754,84.0273 Z M41.41002,14 C43.7385692,14 45.6062828,13.6937886 47.0131533,13.0813659 C48.4199741,12.4689432 49.5721067,11.7585389 50.4695511,10.9501529 C51.3670452,10.1417669 52.1856788,9.43135258 52.9254519,8.81890979 C53.6652747,8.20648706 54.5202959,7.9002757 55.4905155,7.9002757 C56.460735,7.9002757 57.3036353,8.20648706 58.0192163,8.81890979 C58.7347476,9.43135258 59.5533812,10.1417669 60.4751171,10.9501529 C61.3968033,11.7585389 62.6095901,12.4689432 64.1134776,13.0813659 C65.6173154,13.6937886 67.6426754,14 70.1895576,14 L70.4806085,14 C71.5721365,14 72.4999329,13.6141692 73.2639975,12.8425075 C74.0280125,12.070896 74.41002,11.1338998 74.41002,10.0315188 C74.41002,8.95364579 74.0280125,8.02888096 73.2639975,7.25722432 C72.4999329,6.48557269 71.5721365,6.09974688 70.4806085,6.09974688 L70.1895576,6.09974688 C69.2678217,6.09974688 68.3703525,5.90989433 67.4971499,5.53018923 C66.6239474,5.15048915 65.5081775,4.47069842 64.1498403,3.49081705 C63.1796208,2.78040568 61.9789549,2.021 60.5478426,1.2126 C59.1167799,0.4042 57.4310042,0 55.4905155,0 C53.5500764,0 51.8643007,0.4042 50.4331884,1.2126 C49.0020761,2.021 47.8014101,2.78040568 46.8311906,3.49081705 C45.7881959,4.25022223 44.8786058,4.87489641 44.1024202,5.36483961 C43.3262346,5.85477779 42.4287654,6.09974688 41.41002,6.09974688 C40.3913094,6.09974688 39.493865,5.85477779 38.7176794,5.36483961 C37.9414938,4.87489641 37.0318789,4.25022223 35.9888345,3.49081705 C35.018615,2.78040568 33.8179739,2.021 32.3869112,1.2126 C30.9557989,0.4042 29.2699984,0 27.3295096,0 C25.3890706,0 23.7032949,0.4042 22.2721825,1.2126 C20.8411199,2.021 19.6404788,2.78040568 18.6702593,3.49081705 C17.3361639,4.47069842 16.2264545,5.15048915 15.3411311,5.53018923 C14.4558076,5.90989433 13.5522779,6.09974688 12.6305421,6.09974688 L12.3394911,6.09974688 C11.2479631,6.09974688 10.3201667,6.48557269 9.55610207,7.25722432 C8.79204736,8.02888096 8.41002,8.95364579 8.41002,10.0315188 C8.41002,11.1338998 8.79204736,12.070896 9.55610207,12.8425075 C10.3201667,13.6141692 11.2479631,14 12.3394911,14 L12.6305421,14 C15.1773745,14 17.2027345,13.6937886 18.706622,13.0813659 C20.2104598,12.4689432 21.4232467,11.7585389 22.3449825,10.9501529 C23.2667184,10.1417669 24.085352,9.43135258 24.8008833,8.81890979 C25.5164147,8.20648706 26.3592901,7.9002757 27.3295096,7.9002757 C28.2997788,7.9002757 29.1548,8.20648706 29.8945732,8.81890979 C30.634396,9.43135258 31.4530296,10.1417669 32.350474,10.9501529 C33.247968,11.7585389 34.4001255,12.4689432 35.8069463,13.0813659 C37.2137671,13.6937886 39.0814559,14 41.41002,14 Z" id="Shape"></path>
                </g>
                <g id="Regular-S" transform="translate(887.130000, 3.000000)">
                    <path d="M14.3555,56.66211 L56.2012,56.66211 C59.0983333,56.66211 61.6211333,56.0354833 63.7696,54.78223 C65.918,53.52897 67.5862667,51.7711567 68.7744,49.50879 C69.9626,47.2463967 70.5567,44.6341 70.5567,41.6719 L70.5567,15 L0,15 L0,41.6719 C0,44.6341 0.5941,47.2463967 1.7823,49.50879 C2.97043333,51.7711567 4.6387,53.52897 6.7871,54.78223 C8.93556667,56.0354833 11.4583667,56.66211 14.3555,56.66211 Z M15.2832,50.99805 C13.1022,50.99805 11.3037,50.6074233 9.8877,49.82617 C8.4717,49.0449233 7.41376667,47.9544333 6.7139,46.5547 C6.01403333,45.1549667 5.6641,43.5273667 5.6641,41.6719 L5.6641,20.6502075 L64.8926,20.6502075 L64.8926,41.6719 C64.8926,43.5273667 64.5426667,45.1549667 63.8428,46.5547 C63.1429333,47.9544333 62.085,49.0449233 60.669,49.82617 C59.2529333,50.6074233 57.4544333,50.99805 55.2735,50.99805 L15.2832,50.99805 Z M8.7891,72.3359 L11.084,72.3359 C12.1256667,72.3359 12.9394667,71.8639 13.5254,70.9199 L24.9024,52.60938 L16.8946,52.60938 L6.8848,68.67383 C6.36393333,69.5527433 6.30696667,70.3828333 6.7139,71.1641 C7.12076667,71.9453 7.8125,72.3359 8.7891,72.3359 Z M12.0117,67.35547 L58.6426,67.35547 L58.6426,61.1543 L12.0117,61.1543 L12.0117,67.35547 Z M59.6192,72.3359 L61.9141,72.3359 C62.8906333,72.3359 63.5661,71.9371333 63.9405,71.1396 C64.3148333,70.3421333 64.2415667,69.52021 63.7207,68.67383 L53.8086,52.60938 L45.8496,52.60938 L57.2266,70.9199 C57.78,71.8639 58.5775333,72.3359 59.6192,72.3359 Z M35.2443143,10 C37.2519374,10 38.8984402,9.71830429 40.1838224,9.15491286 C41.4692047,8.59152143 42.5587084,7.94011422 43.4523336,7.20069121 C44.3459589,6.46125859 45.2028804,5.80985138 46.0230982,5.24646957 C46.8432658,4.68309256 47.8042313,4.40140406 48.9059947,4.40140406 C50.0077581,4.40140406 50.956489,4.68309256 51.7521875,5.24646957 C52.547886,5.80985138 53.3986652,6.46125859 54.304525,7.20069121 C55.2104349,7.94011422 56.3550444,8.59152143 57.7383534,9.15491286 C59.1216623,9.71830429 60.9762531,10 63.3021256,10 L63.4490157,10 C64.0856146,10 64.6242617,9.78286907 65.064957,9.34860721 C65.5056523,8.91429727 65.726,8.39198597 65.726,7.7816733 C65.726,7.17135101 65.5056523,6.65492169 65.064957,6.23238533 C64.6242617,5.80984898 64.0856146,5.5985808 63.4490157,5.5985808 L63.3021256,5.5985808 C61.7841861,5.5985808 60.5294154,5.34036493 59.5378133,4.82393321 C58.5462614,4.30750148 57.5118633,3.67369935 56.4346192,2.9225268 C55.5042401,2.26525443 54.4208537,1.61384818 53.1844599,0.968308042 C51.948066,0.322769347 50.521911,0 48.9059947,0 C47.1921517,0 45.710916,0.346243429 44.4622876,1.03873029 C43.2136592,1.73121763 42.1241554,2.40609989 41.1937764,3.06337706 C40.1899397,3.79107457 39.2534433,4.3955341 38.3842873,4.87675566 C37.5151312,5.35797242 36.4684735,5.5985808 35.2443143,5.5985808 C33.9956859,5.5985808 32.9367936,5.35797242 32.0676375,4.87675566 C31.1984815,4.3955341 30.2620102,3.79107457 29.2582236,3.06337706 C28.3278446,2.40609989 27.2383157,1.73121763 25.9896372,1.03873029 C24.7410088,0.346243429 23.2720327,0 21.582709,0 C19.9423236,0 18.503934,0.322769347 17.2675401,0.968308042 C16.0310962,1.61384818 14.9477097,2.26525443 14.0173808,2.9225268 C12.9400865,3.67369935 11.9056634,4.30750148 10.9141115,4.82393321 C9.92255954,5.34036493 8.68002336,5.5985808 7.18650294,5.5985808 L7.03961285,5.5985808 C6.40306408,5.5985808 5.85832475,5.80984898 5.40539485,6.23238533 C4.95246495,6.65492169 4.726,7.17135101 4.726,7.7816733 C4.726,8.39198597 4.95246495,8.91429727 5.40539485,9.34860721 C5.85832475,9.78286907 6.40306408,10 7.03961285,10 L7.18650294,10 C9.48795643,10 11.3303377,9.71830429 12.7136466,9.15491286 C14.0969556,8.59152143 15.24154,7.94011422 16.1473998,7.20069121 C17.0533098,6.46125859 17.904114,5.80985138 18.6998125,5.24646957 C19.495511,4.68309256 20.4564765,4.40140406 21.582709,4.40140406 C22.6599531,4.40140406 23.6086841,4.68309256 24.4289018,5.24646957 C25.2490695,5.80985138 26.1059659,6.46125859 26.9995912,7.20069121 C27.8932164,7.94011422 28.9827201,8.59152143 30.2681024,9.15491286 C31.5534846,9.71830429 33.2122219,10 35.2443143,10 Z" id="Shape"></path>
                </g>
                <g id="Ultralight-S" transform="translate(0.000000, 8.193360)">
                    <path d="M13.1348,51.22461 L51.416,51.22461 C54.6061333,51.22461 57.1696333,50.6223967 59.1065,49.41797 C61.0433,48.2135433 62.4349,46.62663 63.2813,44.65723 C64.1276333,42.6878367 64.5508,40.54754 64.5508,38.23634 L64.5508,9.80664 L0,9.80664 L0,38.23634 C0,40.54754 0.431333333,42.6878367 1.294,44.65723 C2.1566,46.62663 3.55633333,48.2135433 5.4932,49.41797 C7.43006667,50.6223967 9.97726667,51.22461 13.1348,51.22461 Z M13.4278,49.125 C10.5957333,49.125 8.35776667,48.6123033 6.7139,47.58691 C5.07003333,46.5615233 3.89003333,45.2269 3.1739,43.58304 C2.4577,41.9391067 2.0996,40.1568733 2.0996,38.23634 L2.0996,12.30857 L62.4512,12.30857 L62.4512,38.23634 C62.4512,40.1568733 62.0931333,41.9391067 61.377,43.58304 C60.6608667,45.2269 59.4808333,46.5615233 57.8369,47.58691 C56.1930333,48.6123033 53.9551,49.125 51.1231,49.125 L13.4278,49.125 Z M6.4453,64.31054 L7.8614,64.31054 C8.47986667,64.31054 8.95186667,64.0501267 9.2774,63.5293 L17.9688,49.61328 L13.6231,49.61328 L5.5664,62.55273 C5.27346667,62.97591 5.2165,63.3746733 5.3955,63.74902 C5.57456667,64.1233667 5.9245,64.31054 6.4453,64.31054 Z M10.4492,60.0625 L54.0528,60.0625 L54.0528,56.49805 L10.4492,56.49805 L10.4492,60.0625 Z M56.6895,64.31054 L58.1055,64.31054 C58.6263,64.31054 58.9681,64.1233667 59.1309,63.74902 C59.2936333,63.3746733 59.2285333,62.97591 58.9356,62.55273 L50.8789,49.61328 L46.5821,49.61328 L55.2735,63.5293 C55.5989667,64.0501267 56.0709667,64.31054 56.6895,64.31054 Z M32.7008688,7 C34.4384228,7 35.8761851,6.71977109 37.0141557,6.15931328 C38.1521263,5.59885546 39.1616147,4.96405192 40.042621,4.25490265 C40.9236272,3.54575338 41.8474609,2.91666784 42.8141219,2.36764603 C43.7807829,1.81862656 44.9615809,1.54411682 46.3565158,1.54411682 C47.7759593,1.54411682 48.9690116,1.81862656 49.9356726,2.36764603 C50.9023336,2.91666784 51.8383965,3.54575338 52.7438612,4.25490265 C53.6493761,4.96405192 54.7139462,5.59885546 55.9375715,6.15931328 C57.1611969,6.71977109 58.7641541,7 60.7464433,7 L60.8932693,7 C61.1134958,7 61.3031492,6.91993393 61.4622295,6.75980179 C61.6213098,6.59966964 61.70085,6.41666315 61.70085,6.21078232 C61.70085,6.02777348 61.6213098,5.85620534 61.4622295,5.69607788 C61.3031492,5.53594574 61.1134958,5.45587967 60.8932693,5.45587967 L60.7464433,5.45587967 C59.0088892,5.45587967 57.5649873,5.16421241 56.4147373,4.58087791 C55.2645375,3.99754809 54.1510504,3.3398702 53.0742762,2.60784424 C52.1198444,1.96731988 51.1164706,1.37254797 50.0641548,0.823528502 C49.011839,0.274509501 47.7759593,0 46.3565158,0 C44.9126639,0 43.6523258,0.297385488 42.5755014,0.892156463 C41.4987271,1.48692744 40.4953533,2.1045744 39.56538,2.74509735 C38.5620313,3.45424662 37.5403136,4.08333216 36.500227,4.63235397 C35.4601405,5.1813711 34.1936877,5.45587967 32.7008688,5.45587967 C31.2080499,5.45587967 29.9415971,5.1813711 28.9015105,4.63235397 C27.861424,4.08333216 26.8396813,3.45424662 25.8362824,2.74509735 C24.9063091,2.1045744 23.9029353,1.48692744 22.826161,0.892156463 C21.7493867,0.297385488 20.4890486,0 19.0451466,0 C17.6257532,0 16.3898986,0.274509501 15.3375828,0.823528502 C14.285267,1.37254797 13.2941225,1.96731988 12.3641491,2.60784424 C11.2628663,3.3398702 10.1371249,3.99754809 8.98692509,4.58087791 C7.83672527,5.16421241 6.39284835,5.45587967 4.65529432,5.45587967 L4.5084683,5.45587967 C4.28819168,5.45587967 4.09851321,5.53594574 3.93943289,5.69607788 C3.78037763,5.85620534 3.70085,6.02777348 3.70085,6.21078232 C3.70085,6.41666315 3.78037763,6.59966964 3.93943289,6.75980179 C4.09851321,6.91993393 4.28819168,7 4.5084683,7 L4.65529432,7 C6.63758344,7 8.24054069,6.71977109 9.46416605,6.15931328 C10.6877914,5.59885546 11.7584511,4.96405192 12.676145,4.25490265 C13.5938891,3.54575338 14.529977,2.91666784 15.4844088,2.36764603 C16.4388406,1.81862656 17.6257532,1.54411682 19.0451466,1.54411682 C20.4400815,1.54411682 21.6208795,1.81862656 22.5875405,2.36764603 C23.5542016,2.91666784 24.4841749,3.54575338 25.3774605,4.25490265 C26.270696,4.96405192 27.2801844,5.59885546 28.4059257,6.15931328 C29.5316671,6.71977109 30.9633148,7 32.7008688,7 Z" id="Shape"></path>
                </g>
            </g>
        </g>
    </g>
</svg>