<?xml version="1.0" encoding="UTF-8"?>
<svg width="3300px" height="2200px" viewBox="0 0 3300 2200" version="1.1" xmlns="http://www.w3.org/2000/svg" xmlns:xlink="http://www.w3.org/1999/xlink">
    <title>railway.coach</title>
    <g id="Page-1" stroke="none" stroke-width="1" fill="none" fill-rule="evenodd">
        <g id="railway.coach">
            <g id="Notes">
                <rect id="artboard" fill="#FFFFFF" fill-rule="nonzero" x="0" y="0" width="3300" height="2200"></rect>
                <line x1="263" y1="292" x2="3036" y2="292" id="Path" stroke="#000000" stroke-width="0.5"></line>
                <text id="Weight/Scale-Variations" fill="#000000" fill-rule="nonzero" font-family="Helvetica" font-size="13" font-weight="normal">
                    <tspan x="263" y="322">Weight/Scale Variations</tspan>
                </text>
                <text id="Ultralight" fill="#000000" fill-rule="nonzero" font-family="Helvetica" font-size="13" font-weight="normal">
                    <tspan x="533.711" y="322">Ultralight</tspan>
                </text>
                <text id="Thin" fill="#000000" fill-rule="nonzero" font-family="Helvetica" font-size="13" font-weight="normal">
                    <tspan x="843.422" y="322">Thin</tspan>
                </text>
                <text id="Light" fill="#000000" fill-rule="nonzero" font-family="Helvetica" font-size="13" font-weight="normal">
                    <tspan x="1138.63" y="322">Light</tspan>
                </text>
                <text id="Regular" fill="#000000" fill-rule="nonzero" font-family="Helvetica" font-size="13" font-weight="normal">
                    <tspan x="1426.84" y="322">Regular</tspan>
                </text>
                <text id="Medium" fill="#000000" fill-rule="nonzero" font-family="Helvetica" font-size="13" font-weight="normal">
                    <tspan x="1723.06" y="322">Medium</tspan>
                </text>
                <text id="Semibold" fill="#000000" fill-rule="nonzero" font-family="Helvetica" font-size="13" font-weight="normal">
                    <tspan x="2015.77" y="322">Semibold</tspan>
                </text>
                <text id="Bold" fill="#000000" fill-rule="nonzero" font-family="Helvetica" font-size="13" font-weight="normal">
                    <tspan x="2326.48" y="322">Bold</tspan>
                </text>
                <text id="Heavy" fill="#000000" fill-rule="nonzero" font-family="Helvetica" font-size="13" font-weight="normal">
                    <tspan x="2618.19" y="322">Heavy</tspan>
                </text>
                <text id="Black" fill="#000000" fill-rule="nonzero" font-family="Helvetica" font-size="13" font-weight="normal">
                    <tspan x="2917.4" y="322">Black</tspan>
                </text>
                <line x1="263" y1="1903" x2="3036" y2="1903" id="Path" stroke="#000000" stroke-width="0.5"></line>
                <g id="Group" transform="translate(264.367190, 1918.068400)" fill="#000000" fill-rule="nonzero">
                    <path d="M7.88086,15.761678 C8.96156,15.761678 9.97717667,15.5566 10.92771,15.146444 C11.8782433,14.7362873 12.7164767,14.166626 13.44241,13.43746 C14.1682767,12.7082933 14.7379433,11.86845 15.15141,10.91793 C15.56481,9.96741 15.77151,8.95504 15.77151,7.88082 C15.77151,6.8066 15.56481,5.79422667 15.15141,4.8437 C14.7379433,3.89316667 14.1666433,3.05333333 13.43751,2.3242 C12.70831,1.595 11.8684767,1.02533333 10.91801,0.6152 C9.96747667,0.205066667 8.95183667,0 7.87109,0 C6.79687,0 5.7845,0.205066667 4.83398,0.6152 C3.88346,1.02533333 3.04687333,1.595 2.32422,2.3242 C1.60156,3.05333333 1.03352333,3.89316667 0.62011,4.8437 C0.206703333,5.79422667 -8.8817842e-16,6.8066 -8.8817842e-16,7.88082 C-8.8817842e-16,8.95504 0.206703333,9.96741 0.62011,10.91793 C1.03352333,11.86845 1.60318667,12.7082933 2.3291,13.43746 C3.05501333,14.166626 3.89323,14.7362873 4.84375,15.146444 C5.79427,15.5566 6.80664,15.761678 7.88086,15.761678 Z M7.88086,14.277303 C6.99544,14.277303 6.16699,14.1129153 5.39551,13.78414 C4.62402333,13.4553667 3.94694,12.99801 3.36426,12.41207 C2.78157333,11.82613 2.32584333,11.14579 1.99707,10.37105 C1.66829,9.59631 1.5039,8.76623333 1.5039,7.88082 C1.5039,6.9954 1.66666333,6.16532 1.99219,5.39058 C2.31771,4.61586 2.77181,3.93553333 3.35449,3.3496 C3.93717,2.76366667 4.61425333,2.3063 5.38574,1.9775 C6.15722667,1.6487 6.98567667,1.4843 7.87109,1.4843 C8.76303667,1.4843 9.59474333,1.6487 10.36621,1.9775 C11.1376767,2.3063 11.8163767,2.76366667 12.40231,3.3496 C12.9882433,3.93553333 13.4472433,4.61586 13.77931,5.39058 C14.11131,6.16532 14.27731,6.9954 14.27731,7.88082 C14.27731,8.76623333 14.1129433,9.59631 13.78421,10.37105 C13.45541,11.14579 12.9996767,11.82613 12.41701,12.41207 C11.8343433,12.99801 11.15561,13.4553667 10.38081,13.78414 C9.60607667,14.1129153 8.77276,14.277303 7.88086,14.277303 Z M4.47265,7.89058 C4.47265,8.10542667 4.54101,8.27958333 4.67773,8.41305 C4.81445,8.54651 4.99674333,8.61324 5.22461,8.61324 L7.13867,8.61324 L7.13867,10.53707 C7.13867,10.7584233 7.2054,10.93746 7.33886,11.07418 C7.47232667,11.2109 7.64648333,11.27926 7.86133,11.27926 C8.08268333,11.27926 8.26171667,11.2109 8.39843,11.07418 C8.53515,10.93746 8.60351,10.7584233 8.60351,10.53707 L8.60351,8.61324 L10.52731,8.61324 C10.74871,8.61324 10.9277433,8.54651 11.06441,8.41305 C11.2011433,8.27958333 11.26951,8.10542667 11.26951,7.89058 C11.26951,7.66922667 11.2011433,7.49019333 11.06441,7.35348 C10.9277433,7.21676 10.74871,7.1484 10.52731,7.1484 L8.60351,7.1484 L8.60351,5.23433 C8.60351,5.00644333 8.53515,4.82416667 8.39843,4.6875 C8.26171667,4.55076667 8.08268333,4.4824 7.86133,4.4824 C7.64648333,4.4824 7.47232667,4.55076667 7.33886,4.6875 C7.2054,4.82416667 7.13867,5.00644333 7.13867,5.23433 L7.13867,7.1484 L5.22461,7.1484 C4.99674333,7.1484 4.81445,7.21676 4.67773,7.35348 C4.54101,7.49019333 4.47265,7.66922667 4.47265,7.89058 Z" id="Shape"></path>
                </g>
                <g id="Group" transform="translate(283.615050, 1915.988300)" fill="#000000" fill-rule="nonzero">
                    <path d="M9.96095,19.92186 C11.3216167,19.92186 12.60255,19.6614433 13.80375,19.14061 C15.0048833,18.6197767 16.06445,17.9003744 16.98245,16.9824031 C17.9003833,16.0644344 18.6197833,15.0048633 19.14065,13.80369 C19.66145,12.6025167 19.92185,11.3215933 19.92185,9.96092 C19.92185,8.60024 19.66145,7.3193 19.14065,6.1181 C18.6197833,4.91696667 17.9003833,3.8574 16.98245,2.9394 C16.06445,2.02146667 15.00325,1.30206667 13.79885,0.7812 C12.5943833,0.2604 11.3118167,0 9.95115,0 C8.59048333,0 7.30956667,0.2604 6.1084,0.7812 C4.90722667,1.30206667 3.84928333,2.02146667 2.93457,2.9394 C2.01985667,3.8574 1.30208333,4.91696667 0.78125,6.1181 C0.260416667,7.3193 8.8817842e-16,8.60024 8.8817842e-16,9.96092 C8.8817842e-16,11.3215933 0.260416667,12.6025167 0.78125,13.80369 C1.30208333,15.0048633 2.02148333,16.0644344 2.93945,16.9824031 C3.85741667,17.9003744 4.91698667,18.6197767 6.11816,19.14061 C7.31933333,19.6614433 8.60026333,19.92186 9.96095,19.92186 Z M9.96095,18.2617 C8.80859667,18.2617 7.73111667,18.0468563 6.72851,17.617169 C5.72591,17.1874813 4.84537667,16.593405 4.08691,15.83494 C3.32845,15.07648 2.73600333,14.1959467 2.30957,13.19334 C1.88313667,12.1907333 1.66992,11.11326 1.66992,9.96092 C1.66992,8.80857333 1.88313667,7.7311 2.30957,6.7285 C2.73600333,5.7259 3.32682333,4.84373333 4.08203,4.082 C4.83723667,3.32026667 5.71614333,2.7262 6.71875,2.2998 C7.72135,1.87333333 8.79881667,1.6601 9.95115,1.6601 C11.1034833,1.6601 12.18095,1.87333333 13.18355,2.2998 C14.18615,2.7262 15.0683167,3.32026667 15.83005,4.082 C16.5917833,4.84373333 17.1874833,5.7259 17.61715,6.7285 C18.0468833,7.7311 18.26175,8.80857333 18.26175,9.96092 C18.26175,11.11326 18.0485167,12.1907333 17.62205,13.19334 C17.19565,14.1959467 16.6032167,15.07648 15.84475,15.83494 C15.0862833,16.593405 14.2041167,17.1874813 13.19825,17.617169 C12.1923833,18.0468563 11.1132833,18.2617 9.96095,18.2617 Z M5.64453,9.97068 C5.64453,10.20506 5.72265333,10.39712 5.8789,10.54686 C6.03515333,10.6966 6.23697667,10.77147 6.48437,10.77147 L9.13085,10.77147 L9.13085,13.43748 C9.13085,13.6783667 9.20571667,13.8753067 9.35545,14.0283 C9.50518333,14.1812933 9.69725,14.25779 9.93165,14.25779 C10.17905,14.25779 10.3808833,14.1812933 10.53715,14.0283 C10.69335,13.8753067 10.77145,13.6783667 10.77145,13.43748 L10.77145,10.77147 L13.42775,10.77147 C13.6686167,10.77147 13.8671833,10.6966 14.02345,10.54686 C14.1797167,10.39712 14.25785,10.20506 14.25785,9.97068 C14.25785,9.72328667 14.1797167,9.52309333 14.02345,9.3701 C13.8671833,9.21710667 13.6686167,9.14061 13.42775,9.14061 L10.77145,9.14061 L10.77145,6.4941 C10.77145,6.24023333 10.69335,6.0368 10.53715,5.8838 C10.3808833,5.7308 10.17905,5.6543 9.93165,5.6543 C9.69725,5.6543 9.50518333,5.7308 9.35545,5.8838 C9.20571667,6.0368 9.13085,6.24023333 9.13085,6.4941 L9.13085,9.14061 L6.48437,9.14061 C6.23046333,9.14061 6.02701333,9.21710667 5.87402,9.3701 C5.72102667,9.52309333 5.64453,9.72328667 5.64453,9.97068 Z" id="Shape"></path>
                </g>
                <g id="Group" transform="translate(307.901860, 1913.224600)" fill="#000000" fill-rule="nonzero">
                    <path d="M12.71484,25.43946 C14.10804,25.43946 15.4378067,25.22299 16.70414,24.79005 C17.9704067,24.3571033 19.13414,23.7500067 20.19534,22.96876 C21.25654,22.1875067 22.1793733,21.2662827 22.96384,20.205088 C23.7483733,19.1438893 24.3571067,17.9785233 24.79004,16.70899 C25.2229733,15.4394633 25.43944,14.11134 25.43944,12.72462 C25.43944,11.3313933 25.2229733,10.0016533 24.79004,8.7354 C24.3571067,7.46906667 23.7483733,6.30533333 22.96384,5.2442 C22.1793733,4.183 21.25654,3.26013333 20.19534,2.4756 C19.13414,1.69106667 17.9687733,1.08233333 16.69924,0.6494 C15.4297067,0.216466667 14.0983067,0 12.70504,0 C11.31184,0 9.98210667,0.216466667 8.71584,0.6494 C7.44955333,1.08233333 6.28743667,1.69106667 5.22949,2.4756 C4.17155,3.26013333 3.25032667,4.183 2.46582,5.2442 C1.68131333,6.30533333 1.07421667,7.46906667 0.64453,8.7354 C0.214843333,10.0016533 0,11.3313933 0,12.72462 C0,14.11134 0.21647,15.4394633 0.64941,16.70899 C1.08235667,17.9785233 1.68945333,19.1438893 2.4707,20.205088 C3.25195333,21.2662827 4.17317667,22.1875067 5.23437,22.96876 C6.29557,23.7500067 7.45929333,24.3571033 8.72554,24.79005 C9.99187333,25.22299 11.32164,25.43946 12.71484,25.43946 Z M12.71484,23.62306 C11.51044,23.62306 10.3629733,23.43914 9.27244,23.0713 C8.18196,22.70346 7.18424667,22.18751 6.2793,21.52345 C5.37434667,20.8593853 4.58821333,20.0732513 3.9209,19.165048 C3.25358,18.2568427 2.73763,17.2574933 2.37305,16.167 C2.00846333,15.0765067 1.82617,13.9290467 1.82617,12.72462 C1.82617,11.51368 2.00846333,10.3629733 2.37305,9.2725 C2.73763,8.18196667 3.25195333,7.1826 3.91602,6.2744 C4.58008,5.3662 5.36458333,4.58006667 6.26953,3.916 C7.17447667,3.25193333 8.17221333,2.73763333 9.26274,2.3731 C10.3532067,2.0085 11.50064,1.8262 12.70504,1.8262 C13.9159733,1.8262 15.0667067,2.0085 16.15724,2.3731 C17.2477067,2.73763333 18.24704,3.25193333 19.15524,3.916 C20.06344,4.58006667 20.8495733,5.3662 21.51364,6.2744 C22.1777067,7.1826 22.6936733,8.18196667 23.06154,9.2725 C23.42934,10.3629733 23.6134125,11.51368 23.6134125,12.72462 C23.6197733,13.9290467 23.44074,15.0765067 23.07614,16.167 C22.7116067,17.2574933 22.1956733,18.2568427 21.52834,19.165048 C20.8610067,20.0732513 20.07324,20.8593853 19.16504,21.52345 C18.25684,22.18751 17.2575067,22.70346 16.16704,23.0713 C15.0765067,23.43914 13.9257733,23.62306 12.71484,23.62306 Z M7.19726,12.73438 C7.19726,12.9882867 7.28352333,13.19825 7.45605,13.36427 C7.62857667,13.5302833 7.84830667,13.61329 8.11524,13.61329 L11.80664,13.61329 L11.80664,17.31446 C11.80664,17.5813867 11.88964,17.7994867 12.05564,17.96876 C12.22164,18.1380333 12.4316067,18.22267 12.68554,18.22267 C12.9590067,18.22267 13.1803733,18.1380333 13.34964,17.96876 C13.5189067,17.7994867 13.60354,17.5813867 13.60354,17.31446 L13.60354,13.61329 L17.30464,13.61329 C17.5715733,13.61329 17.7896733,13.5302833 17.95894,13.36427 C18.1282733,13.19825 18.21294,12.9882867 18.21294,12.73438 C18.21294,12.4609467 18.1282733,12.2395933 17.95894,12.07032 C17.7896733,11.9010533 17.5715733,11.81642 17.30464,11.81642 L13.60354,11.81642 L13.60354,8.125 C13.60354,7.8516 13.5189067,7.63023333 13.34964,7.4609 C13.1803733,7.29163333 12.9590067,7.207 12.68554,7.207 C12.4316067,7.207 12.22164,7.29326667 12.05564,7.4658 C11.88964,7.63833333 11.80664,7.85806667 11.80664,8.125 L11.80664,11.81642 L8.11524,11.81642 C7.8418,11.81642 7.62044333,11.9010533 7.45117,12.07032 C7.28189667,12.2395933 7.19726,12.4609467 7.19726,12.73438 Z" id="Shape"></path>
                </g>
                <text id="Design-Variations" fill="#000000" fill-rule="nonzero" font-family="Helvetica" font-size="13" font-weight="normal">
                    <tspan x="263" y="1953">Design Variations</tspan>
                </text>
                <text id="Symbols-are-supported-in-up-to-nine-weights-and-three-scales." fill="#000000" fill-rule="nonzero" font-family="Helvetica" font-size="13" font-weight="normal">
                    <tspan x="263" y="1971">Symbols are supported in up to nine weights and three scales.</tspan>
                </text>
                <text id="For-optimal-layout-with-text-and-other-symbols,-vertically-align" fill="#000000" fill-rule="nonzero" font-family="Helvetica" font-size="13" font-weight="normal">
                    <tspan x="263" y="1989">For optimal layout with text and other symbols, vertically align</tspan>
                </text>
                <text id="symbols-with-the-adjacent-text." fill="#000000" fill-rule="nonzero" font-family="Helvetica" font-size="13" font-weight="normal">
                    <tspan x="263" y="2007">symbols with the adjacent text.</tspan>
                </text>
                <line x1="776" y1="1919" x2="776" y2="1933" id="Path" stroke="#00AEEF" stroke-width="0.5"></line>
                <g id="Group" transform="translate(778.490230, 1918.732400)" fill="#000000" fill-rule="nonzero">
                    <path d="M0.82032,14.42385 C1.08073333,14.42385 1.28255667,14.3685115 1.42579,14.2578344 C1.56901667,14.1471575 1.68620333,13.9551 1.77735,13.681662 L3.03711,10.2344 L8.79887,10.2344 L10.05857,13.681662 C10.1497033,13.9551 10.2669033,14.1471575 10.41017,14.2578344 C10.55337,14.3685115 10.7519367,14.42385 11.00587,14.42385 C11.26627,14.42385 11.47297,14.3522354 11.62597,14.2090062 C11.77897,14.0657767 11.85547,13.8704643 11.85547,13.623069 C11.85547,13.473329 11.81967,13.297546 11.74807,13.09572 L7.16797,0.8985 C7.05078333,0.598966667 6.89128,0.374333333 6.68946,0.2246 C6.48763333,0.0748666667 6.23047,0 5.91797,0 C5.31250333,0 4.90234667,0.296233333 4.6875,0.8887 L0.10743,13.10549 C0.03581,13.3073133 -4.4408921e-16,13.4830947 -4.4408921e-16,13.632834 C-4.4408921e-16,13.88023 0.0732433333,14.073915 0.21973,14.2138891 C0.366216667,14.353863 0.566413333,14.42385 0.82032,14.42385 Z M3.51563,8.75002 L5.88868,2.1778 L5.9375,2.1778 L8.31057,8.75002 L3.51563,8.75002 Z" id="Shape"></path>
                </g>
                <line x1="793.197" y1="1919" x2="793.197" y2="1933" id="Path" stroke="#00AEEF" stroke-width="0.5"></line>
                <text id="Margins" fill="#000000" fill-rule="nonzero" font-family="Helvetica" font-size="13" font-weight="normal">
                    <tspan x="776" y="1953">Margins</tspan>
                </text>
                <text id="Leading-and-trailing-margins-on-the-left-and-right-side-of-each-symbol" fill="#000000" fill-rule="nonzero" font-family="Helvetica" font-size="13" font-weight="normal">
                    <tspan x="776" y="1971">Leading and trailing margins on the left and right side of each symbol</tspan>
                </text>
                <text id="can-be-adjusted-by-modifying-the-x-location-of-the-margin-guidelines." fill="#000000" fill-rule="nonzero" font-family="Helvetica" font-size="13" font-weight="normal">
                    <tspan x="776" y="1989">can be adjusted by modifying the x-location of the margin guidelines.</tspan>
                </text>
                <text id="Modifications-are-automatically-applied-proportionally-to-all" fill="#000000" fill-rule="nonzero" font-family="Helvetica" font-size="13" font-weight="normal">
                    <tspan x="776" y="2007">Modifications are automatically applied proportionally to all</tspan>
                </text>
                <text id="scales-and-weights." fill="#000000" fill-rule="nonzero" font-family="Helvetica" font-size="13" font-weight="normal">
                    <tspan x="776" y="2025">scales and weights.</tspan>
                </text>
                <g id="Group" transform="translate(1291.246849, 1914.517550)" fill="#000000" fill-rule="nonzero">
                    <path d="M0.594951479,20.3476805 L2.29417148,22.0566705 C2.72385815,22.4928705 3.17795815,22.6946938 3.65647148,22.6621405 C4.13498481,22.6295872 4.60536148,22.3561505 5.06760148,21.8418305 L15.7609515,10.0547205 L14.7941515,9.07815049 L4.17893148,20.7578405 C4.00315148,20.9596605 3.82574148,21.0735938 3.64670148,21.0996405 C3.46766815,21.1256805 3.26096481,21.0215138 3.02659148,20.7871405 L1.85471148,19.6250305 C1.62033815,19.3906545 1.51780148,19.1839482 1.54710148,19.0049115 C1.57639481,18.8258748 1.69195148,18.6452108 1.89377148,18.4629193 L13.3683515,7.66215049 L12.3918515,6.69535049 L0.800031479,17.5840125 C0.305238146,18.0397418 0.039938146,18.5052368 0.00413147929,18.9804975 C-0.0316751874,19.4557595 0.165264813,19.9114872 0.594951479,20.3476805 Z M7.01096148,2.15435049 C6.80262815,2.35615049 6.68544148,2.58725049 6.65940148,2.84765049 C6.63336148,3.10811716 6.67893481,3.33598382 6.79612148,3.53125049 C6.91330815,3.71358382 7.08420481,3.85031716 7.30881148,3.94145049 C7.53342481,4.03258382 7.80850481,4.03908382 8.13405148,3.96095049 C8.86318481,3.79168382 9.60211815,3.72171716 10.3508515,3.75105049 C11.0995181,3.78031716 11.8319181,4.02931716 12.5480515,4.49805049 L11.9621515,5.95315049 C11.7928848,6.36981716 11.7456848,6.73278382 11.8205515,7.04205049 C11.8954181,7.35125049 12.0663181,7.64258382 12.3332515,7.91605049 L14.6281515,10.2305005 C14.8690181,10.4778938 15.1033848,10.6211205 15.3312515,10.6601805 C15.5591181,10.6992472 15.8130181,10.6927372 16.0929515,10.6406505 L17.1574515,10.4453405 L17.8215515,11.1191705 L17.7824515,11.6758105 C17.7629181,11.9232038 17.7938515,12.1510672 17.8752515,12.3594005 C17.9565848,12.5677338 18.1177181,12.7923438 18.3586515,13.0332305 L19.1203515,13.7754205 C19.3612181,14.0163072 19.6232515,14.1416338 19.9064515,14.1514005 C20.1896515,14.1611605 20.4484515,14.0488538 20.6828515,13.8144805 L23.5929515,10.8945605 C23.8273515,10.6601872 23.9412848,10.4046538 23.9347515,10.1279605 C23.9282848,9.85126716 23.8045848,9.59247716 23.5636515,9.35159049 L22.7922515,8.58987049 C22.5578515,8.34899049 22.3381181,8.18461716 22.1330515,8.09675049 C21.9279848,8.00881716 21.7049848,7.97461716 21.4640515,7.99415049 L20.8879515,8.04295049 L20.2433515,7.40825049 L20.4875515,6.28515049 C20.5526181,6.00521716 20.5395848,5.74318382 20.4484515,5.49905049 C20.3573181,5.25491716 20.1652515,4.98635049 19.8722515,4.69335049 L17.6750515,2.50585049 C16.8417181,1.67905049 15.9546515,1.05895049 15.0138515,0.64555049 C14.0731181,0.23215049 13.1258515,0.0173171567 12.1720515,0.00105049002 C11.2183181,-0.0152828433 10.3003515,0.15885049 9.41815148,0.52345049 C8.53601815,0.88805049 7.73362148,1.43168382 7.01096148,2.15435049 Z M8.50515148,2.52545049 C9.11061815,2.08271716 9.76001815,1.76695049 10.4533515,1.57815049 C11.1466848,1.38935049 11.8481848,1.32911716 12.5578515,1.39745049 C13.2674515,1.46585049 13.9559181,1.65628382 14.6232515,1.96875049 C15.2905848,2.28128382 15.9009515,2.71748382 16.4543515,3.27735049 L18.8859515,5.68945049 C19.0031515,5.80665049 19.0763848,5.92058382 19.1056515,6.03125049 C19.1349848,6.14191716 19.1301181,6.28191716 19.0910515,6.45125049 L18.7687515,7.93555049 L20.2726515,9.41995049 L21.2590515,9.36136049 C21.3827181,9.35484716 21.4771181,9.36298382 21.5422515,9.38577049 C21.6073181,9.40855716 21.6886848,9.46877716 21.7863515,9.56643049 L22.3625515,10.1426105 L19.9211515,12.5840105 L19.3449515,12.0078405 C19.2472848,11.9101872 19.1854181,11.8288072 19.1593515,11.7637005 C19.1333515,11.6985938 19.1236181,11.6009372 19.1301515,11.4707305 L19.1984515,10.4941705 L17.7043515,9.00979049 L16.1808515,9.26370049 C16.0181181,9.29625382 15.8895515,9.30113716 15.7951515,9.27835049 C15.7007515,9.25556382 15.5916848,9.18557716 15.4679515,9.06839049 L13.4660515,7.06645049 C13.3358515,6.94925049 13.2626181,6.83695049 13.2463515,6.72955049 C13.2300848,6.62208382 13.2609848,6.47721716 13.3390515,6.29495049 L14.2179515,4.20515049 C13.4367515,3.47595049 12.5578515,2.97138382 11.5812515,2.69145049 C10.6047181,2.41151716 9.60861815,2.42128382 8.59295148,2.72075049 C8.51488481,2.74028382 8.46445148,2.72561716 8.44165148,2.67675049 C8.41885148,2.62795049 8.44001815,2.57751716 8.50515148,2.52545049 Z" id="Shape"></path>
                </g>
                <text id="Exporting" fill="#000000" fill-rule="nonzero" font-family="Helvetica" font-size="13" font-weight="normal">
                    <tspan x="1289" y="1953">Exporting</tspan>
                </text>
                <text id="Symbols-should-be-outlined-when-exporting-to-ensure-the" fill="#000000" fill-rule="nonzero" font-family="Helvetica" font-size="13" font-weight="normal">
                    <tspan x="1289" y="1971">Symbols should be outlined when exporting to ensure the</tspan>
                </text>
                <text id="design-is-preserved-when-submitting-to-Xcode." fill="#000000" fill-rule="nonzero" font-family="Helvetica" font-size="13" font-weight="normal">
                    <tspan x="1289" y="1989">design is preserved when submitting to Xcode.</tspan>
                </text>
                <text id="template-version" fill="#000000" fill-rule="nonzero" font-family="Helvetica" font-size="13" font-weight="normal">
                    <tspan x="2952" y="1933">Template v.3.0</tspan>
                </text>
                <text id="Requires-Xcode-13-or-greater" fill="#000000" fill-rule="nonzero" font-family="Helvetica" font-size="13" font-weight="normal">
                    <tspan x="2865" y="1951">Requires Xcode 13 or greater</tspan>
                </text>
                <text id="descriptive-name" fill="#000000" fill-rule="nonzero" font-family="Helvetica" font-size="13" font-weight="normal">
                    <tspan x="2863" y="1969">Generated from railway.coach</tspan>
                </text>
                <text id="Typeset-at-100-points" fill="#000000" fill-rule="nonzero" font-family="Helvetica" font-size="13" font-weight="normal">
                    <tspan x="2912" y="1987">Typeset at 100 points</tspan>
                </text>
                <text id="Small" fill="#000000" fill-rule="nonzero" font-family="Helvetica" font-size="13" font-weight="normal">
                    <tspan x="263" y="726">Small</tspan>
                </text>
                <text id="Medium" fill="#000000" fill-rule="nonzero" font-family="Helvetica" font-size="13" font-weight="normal">
                    <tspan x="263" y="1156">Medium</tspan>
                </text>
                <text id="Large" fill="#000000" fill-rule="nonzero" font-family="Helvetica" font-size="13" font-weight="normal">
                    <tspan x="263" y="1586">Large</tspan>
                </text>
            </g>
            <g id="Guides" transform="translate(263.000000, 600.784000)">
                <g id="H-reference" transform="translate(76.976562, 24.757000)" fill="#27AAE1" fill-rule="nonzero">
                    <path d="M-1.22124533e-15,70.459 L2.685548,70.459 L28.369138,3.3203 L29.052738,3.3203 L29.052738,0 L27.148438,0 L-1.22124533e-15,70.459 Z M10.693338,45.9961 L45.996138,45.9961 L45.263638,43.75 L11.474638,43.75 L10.693338,45.9961 Z M54.150438,70.459 L56.787138,70.459 L29.638638,0 L28.466838,0 L28.466838,3.3203 L54.150438,70.459 Z" id="Shape"></path>
                </g>
                <line x1="0" y1="95.216" x2="2773" y2="95.216" id="Baseline-S" stroke="#27AAE1" stroke-width="0.5"></line>
                <line x1="0" y1="24.757" x2="2773" y2="24.757" id="Capline-S" stroke="#27AAE1" stroke-width="0.5"></line>
                <g id="H-reference" transform="translate(76.976562, 454.757000)" fill="#27AAE1" fill-rule="nonzero">
                    <path d="M-1.22124533e-15,70.459 L2.685548,70.459 L28.369138,3.3203 L29.052738,3.3203 L29.052738,0 L27.148438,0 L-1.22124533e-15,70.459 Z M10.693338,45.9961 L45.996138,45.9961 L45.263638,43.75 L11.474638,43.75 L10.693338,45.9961 Z M54.150438,70.459 L56.787138,70.459 L29.638638,0 L28.466838,0 L28.466838,3.3203 L54.150438,70.459 Z" id="Shape"></path>
                </g>
                <line x1="0" y1="525.216" x2="2773" y2="525.216" id="Baseline-M" stroke="#27AAE1" stroke-width="0.5"></line>
                <line x1="0" y1="454.756" x2="2773" y2="454.756" id="Capline-M" stroke="#27AAE1" stroke-width="0.5"></line>
                <g id="H-reference" transform="translate(76.976562, 884.757000)" fill="#27AAE1" fill-rule="nonzero">
                    <path d="M-1.22124533e-15,70.459 L2.685548,70.459 L28.369138,3.3203 L29.052738,3.3203 L29.052738,0 L27.148438,0 L-1.22124533e-15,70.459 Z M10.693338,45.9961 L45.996138,45.9961 L45.263638,43.75 L11.474638,43.75 L10.693338,45.9961 Z M54.150438,70.459 L56.787138,70.459 L29.638638,0 L28.466838,0 L28.466838,3.3203 L54.150438,70.459 Z" id="Shape"></path>
                </g>
                <line x1="0" y1="955.216" x2="2773" y2="955.216" id="Baseline-L" stroke="#27AAE1" stroke-width="0.5"></line>
                <line x1="0" y1="884.756" x2="2773" y2="884.756" id="Capline-L" stroke="#27AAE1" stroke-width="0.5"></line>
                <line x1="254.42" y1="-1.13686838e-13" x2="254.42" y2="119.337" id="left-margin-Ultralight-S" stroke="#00AEEF" stroke-width="0.5"></line>
                <line x1="339.002" y1="-1.13686838e-13" x2="339.002" y2="119.337" id="right-margin-Ultralight-S" stroke="#00AEEF" stroke-width="0.5"></line>
                <line x1="1141.55" y1="-1.13686838e-13" x2="1141.55" y2="119.337" id="left-margin-Regular-S" stroke="#00AEEF" stroke-width="0.5"></line>
                <line x1="1232.14" y1="-1.13686838e-13" x2="1232.14" y2="119.337" id="right-margin-Regular-S" stroke="#00AEEF" stroke-width="0.5"></line>
                <line x1="2618.69" y1="-1.13686838e-13" x2="2618.69" y2="119.337" id="left-margin-Black-S" stroke="#00AEEF" stroke-width="0.5"></line>
                <line x1="2722.11" y1="-1.13686838e-13" x2="2722.11" y2="119.337" id="right-margin-Black-S" stroke="#00AEEF" stroke-width="0.5"></line>
            </g>
            <g id="Symbols" transform="translate(527.435600, 603.769500)" fill="#000000" fill-rule="nonzero">
                <g id="Black-S" transform="translate(2364.270000, -0.000000)">
                    <path d="M18.6035,95.9473 L64.7949,95.9473 C68.7011667,95.9473 72.0377667,95.20674 74.8047,93.72562 C77.5716333,92.2444987 79.6956667,90.1123353 81.1768,87.32913 C82.6579333,84.54593 83.3985,81.2174867 83.3985,77.3438 L83.3985,45.5078 C83.3985,41.6341333 83.3415333,38.5254333 83.2276,36.1817 C83.1136667,33.8379 82.9427667,31.8278 82.7149,30.1514 C82.4870333,28.4749333 82.2103333,26.7578 81.8848,25 C80.9733333,19.9544667 79.5898667,15.8041 77.7344,12.5489 C75.8789333,9.29363333 73.4049667,6.75456667 70.3125,4.9317 C67.2201,3.10876667 63.3464,1.82296667 58.6914,1.0743 C56.3151333,0.683633333 53.7191,0.406933333 50.9033,0.2442 C48.0875667,0.0814 45.0195333,0 41.6992,0 C38.3789333,0 35.3109,0.0814 32.4951,0.2442 C29.6793667,0.406933333 27.0833667,0.683633333 24.7071,1.0743 C20.0521,1.82296667 16.1784,3.10876667 13.086,4.9317 C9.99353333,6.75456667 7.5277,9.29363333 5.6885,12.5489 C3.8493,15.8041 2.4577,19.9544667 1.5137,25 C1.18816667,26.7578 0.911466667,28.4749333 0.6836,30.1514 C0.455733333,31.8278 0.284833333,33.8379 0.1709,36.1817 C0.0569666667,38.5254333 0,41.6341333 0,45.5078 L0,77.3438 C0,81.2174867 0.740566667,84.54593 2.2217,87.32913 C3.70283333,90.1123353 5.835,92.2444987 8.6182,93.72562 C11.4014,95.20674 14.7298333,95.9473 18.6035,95.9473 Z M20.2637,84.42386 C18.4082333,84.42386 16.8131667,84.0657867 15.4785,83.34964 C14.1439,82.63348 13.1185333,81.5999667 12.4024,80.2491 C11.6862667,78.8981667 11.3282,77.2787 11.3282,75.3907 L11.3282,45.5078 C11.3282,41.6341333 11.3933,38.6068 11.5235,36.4258 C11.6537,34.2448 11.8327333,32.3974667 12.0606,30.8838 C12.2884667,29.3701333 12.5488667,27.7018333 12.8418,25.8789 C13.6230667,21.2239667 15.0635,17.9118 17.1631,15.9424 C19.2627,13.973 22.5097667,12.6953333 26.9043,12.1094 C28.8249,11.849 31.0140333,11.6862333 33.4717,11.6211 C35.9293667,11.5560333 38.6718667,11.5235 41.6992,11.5235 C44.7266,11.5235 47.4691333,11.5560333 49.9268,11.6211 C52.3844667,11.6862333 54.5736,11.849 56.4942,12.1094 C60.8887333,12.6953333 64.1358,13.973 66.2354,15.9424 C68.335,17.9118 69.7754333,21.2239667 70.5567,25.8789 C70.8821667,27.7018333 71.1507,29.3701333 71.3623,30.8838 C71.5739,32.3974667 71.7448,34.2448 71.875,36.4258 C72.0052,38.6068 72.0703,41.6341333 72.0703,45.5078 L72.0703,75.3907 C72.0703,77.2787 71.7122333,78.8981667 70.9961,80.2491 C70.2799667,81.5999667 69.2627333,82.63348 67.9444,83.34964 C66.626,84.0657867 65.0228,84.42386 63.1348,84.42386 L20.2637,84.42386 Z M47.73,15 C52.148278,15 55.73,18.581722 55.73,23 L55.73,72 C55.73,76.418278 52.148278,80 47.73,80 L35.73,80 C31.311722,80 27.73,76.418278 27.73,72 L27.73,23 C27.73,18.581722 31.311722,15 35.73,15 L47.73,15 Z M39.1179294,22.2305 C37.0618229,22.2305 35.3847744,24.2349008 35.2979326,26.747882 L35.2944,68.5082778 C35.2944,71.0476572 36.9173404,73.1188838 38.9520726,73.2261371 L44.4708706,73.2305 C46.5269771,73.2305 48.2040256,71.2260992 48.2908674,68.713118 L48.2944,26.9527222 C48.2944,24.4133428 46.6714596,22.3421162 44.6367274,22.2348629 L39.1179294,22.2305 Z M8.5449,114.2578 L12.1094,114.2578 C13.8672,114.2578 15.2344,113.492833 16.211,111.9629 L30.5176,88.96488 L17.627,88.96488 L5.5664,108.3008 C4.85026667,109.472667 4.7282,110.758467 5.2002,112.1582 C5.6722,113.557933 6.7871,114.2578 8.5449,114.2578 Z M14.0625,108.8379 L67.8223,108.8379 L67.8223,99.46292 L14.0625,99.46292 L14.0625,108.8379 Z M69.7754,114.2578 L72.3633,114.2578 C74.1211,114.2578 75.3825,113.5254 76.1475,112.0606 C76.9124333,110.595733 76.8229,109.1146 75.8789,107.6172 L64.2578,88.96488 L51.3672,88.96488 L65.6739,111.9629 C66.6504333,113.492833 68.0176,114.2578 69.7754,114.2578 Z" id="Shape"></path>
                </g>
                <g id="Regular-S" transform="translate(887.130000, 8.398500)">
                    <path d="M14.3555,81.49411 L56.2012,81.49411 C59.0983333,81.49411 61.6211333,80.8674833 63.7696,79.61423 C65.918,78.36097 67.5862667,76.6031567 68.7744,74.34079 C69.9626,72.0783967 70.5567,69.4661 70.5567,66.5039 L70.5567,43.2617 C70.5567,40.0390333 70.4346333,36.8001 70.1905,33.5449 C69.9463,30.2897 69.6126333,27.1728333 69.1895,24.1943 C68.7663,21.2157667 68.2617333,18.5220667 67.6758,16.1132 C66.9922,13.1835333 65.9017,10.6200667 64.4043,8.4228 C62.9069,6.22553333 61.0595667,4.46773333 58.8623,3.1494 C56.6650333,1.831 54.1992333,1.02533333 51.4649,0.7324 C50.4232333,0.634733333 48.3805667,0.488233333 45.3369,0.2929 C42.2933,0.0976333333 38.9323,0 35.2539,0 C31.1523667,0 27.6937333,0.0976333333 24.878,0.2929 C22.0622,0.488233333 20.1172,0.634733333 19.043,0.7324 C16.3412,1.02533333 13.8916667,1.831 11.6944,3.1494 C9.49713333,4.46773333 7.6498,6.22553333 6.1524,8.4228 C4.655,10.6200667 3.5645,13.1835333 2.8809,16.1132 C2.29496667,18.5220667 1.7904,21.1832 1.3672,24.0966 C0.944,27.0100667 0.610333333,30.0537 0.3662,33.2275 C0.122066667,36.4013 0,39.6158333 0,42.8711 L0,66.5039 C0,69.4661 0.5941,72.0783967 1.7823,74.34079 C2.97043333,76.6031567 4.6387,78.36097 6.7871,79.61423 C8.93556667,80.8674833 11.4583667,81.49411 14.3555,81.49411 Z M15.2832,75.83005 C13.1022,75.83005 11.3037,75.4394233 9.8877,74.65817 C8.4717,73.8769233 7.41376667,72.7864333 6.7139,71.3867 C6.01403333,69.9869667 5.6641,68.3593667 5.6641,66.5039 L5.6641,42.8711 C5.6641,39.7786333 5.7699,36.7106 5.9815,33.667 C6.1931,30.6233333 6.50233333,27.7262 6.9092,24.9756 C7.31613333,22.2249333 7.79626667,19.7102667 8.3496,17.4316 C9.13086667,14.1764 10.4980667,11.5966667 12.4512,9.6924 C14.4043333,7.78806667 16.7969,6.68943333 19.6289,6.3965 C20.6705667,6.29883333 22.5342,6.15233333 25.2198,5.957 C27.9053333,5.76166667 31.2500333,5.664 35.2539,5.664 C38.8021,5.664 42.0410333,5.76166667 44.9707,5.957 C47.9004333,6.15233333 49.8861333,6.29883333 50.9278,6.3965 C53.7598,6.68943333 56.1523667,7.78806667 58.1055,9.6924 C60.0586333,11.5966667 61.4258333,14.1764 62.2071,17.4316 C62.7604333,19.7102667 63.2324333,22.2574667 63.6231,25.0732 C64.0137,27.8889333 64.3229333,30.8511667 64.5508,33.9599 C64.7786667,37.0686333 64.8926,40.1692333 64.8926,43.2617 L64.8926,66.5039 C64.8926,68.3593667 64.5426667,69.9869667 63.8428,71.3867 C63.1429333,72.7864333 62.085,73.8769233 60.669,74.65817 C59.2529333,75.4394233 57.4544333,75.83005 55.2735,75.83005 L15.2832,75.83005 Z M39.4344,10.832 C43.852678,10.832 47.4344,14.413722 47.4344,18.832 L47.4344,61.832 C47.4344,66.250278 43.852678,69.832 39.4344,69.832 L31.4344,69.832 C27.016122,69.832 23.4344,66.250278 23.4344,61.832 L23.4344,18.832 C23.4344,14.413722 27.016122,10.832 31.4344,10.832 L39.4344,10.832 Z M31.4344,14.832 C29.2922046,14.832 27.5433211,16.5159685 27.4392953,18.6323597 L27.4344,61.832 C27.4344,63.9741954 29.1183685,65.7230789 31.2347597,65.8271047 L39.4344,65.832 C41.5765954,65.832 43.3254789,64.1480315 43.4295047,62.0316403 L43.4344,18.832 C43.4344,16.6898046 41.7504315,14.9409211 39.6340403,14.8368953 L31.4344,14.832 Z M8.7891,97.1679 L11.084,97.1679 C12.1256667,97.1679 12.9394667,96.6959 13.5254,95.7519 L24.9024,77.44138 L16.8946,77.44138 L6.8848,93.50583 C6.36393333,94.3847433 6.30696667,95.2148333 6.7139,95.9961 C7.12076667,96.7773 7.8125,97.1679 8.7891,97.1679 Z M12.0117,92.18747 L58.6426,92.18747 L58.6426,85.9863 L12.0117,85.9863 L12.0117,92.18747 Z M59.6192,97.1679 L61.9141,97.1679 C62.8906333,97.1679 63.5661,96.7691333 63.9405,95.9716 C64.3148333,95.1741333 64.2415667,94.35221 63.7207,93.50583 L53.8086,77.44138 L45.8496,77.44138 L57.2266,95.7519 C57.78,96.6959 58.5775333,97.1679 59.6192,97.1679 Z" id="Shape"></path>
                </g>
                <g id="Ultralight-S" transform="translate(0.000000, 11.816400)">
                    <path d="M13.1348,77.83207 L51.416,77.83207 C54.6061333,77.83207 57.1696333,77.2298567 59.1065,76.02543 C61.0433,74.8210033 62.4349,73.23409 63.2813,71.26469 C64.1276333,69.2952967 64.5508,67.155 64.5508,64.8438 L64.5508,40.8203 C64.5508,36.5885667 64.3555,32.5033 63.9649,28.5645 C63.5742333,24.6257 63.0940667,21.0775333 62.5244,17.92 C61.9547333,14.7624 61.3932333,12.2070333 60.8399,10.2539 C60.3190333,8.4961 59.5622,6.95803333 58.5694,5.6397 C57.5765333,4.3213 56.3639667,3.26336667 54.9317,2.4659 C53.4993667,1.66836667 51.9043,1.15566667 50.1465,0.9278 C48.0631667,0.667333333 45.4752667,0.4476 42.3828,0.2686 C39.2904,0.0895333333 35.9375333,0 32.3242,0 C28.6458667,0 25.2686,0.0895333333 22.1924,0.2686 C19.1162667,0.4476 16.5202333,0.667333333 14.4043,0.9278 C12.6465,1.15566667 11.0514667,1.66836667 9.6192,2.4659 C8.18686667,3.26336667 6.9743,4.3213 5.9815,5.6397 C4.98863333,6.95803333 4.24806667,8.4961 3.7598,10.2539 C3.2064,12.2070333 2.63673333,14.7624 2.0508,17.92 C1.46486667,21.0775333 0.9766,24.6175667 0.586,28.5401 C0.195333333,32.4626333 0,36.5560333 0,40.8203 L0,64.8438 C0,67.155 0.431333333,69.2952967 1.294,71.26469 C2.1566,73.23409 3.55633333,74.8210033 5.4932,76.02543 C7.43006667,77.2298567 9.97726667,77.83207 13.1348,77.83207 Z M13.4278,75.73246 C10.5957333,75.73246 8.35776667,75.2197633 6.7139,74.19437 C5.07003333,73.1689833 3.89003333,71.83436 3.1739,70.1905 C2.4577,68.5465667 2.0996,66.7643333 2.0996,64.8438 L2.0996,40.8203 C2.0996,36.5560333 2.32746667,32.4626333 2.7832,28.5401 C3.23893333,24.6175667 3.7679,21.1019333 4.3701,17.9932 C4.97236667,14.8844667 5.51763333,12.3861 6.0059,10.4981 C6.49416667,8.47983333 7.50326667,6.8034 9.0332,5.4688 C10.5632,4.13413333 12.4512333,3.30406667 14.6973,2.9786 C17.1387,2.65306667 19.8730667,2.4252 22.9004,2.295 C25.9277333,2.16473333 29.069,2.0996 32.3242,2.0996 C35.5143333,2.0996 38.6230667,2.16473333 41.6504,2.295 C44.6777333,2.4252 47.4446667,2.65306667 49.9512,2.9786 C52.1322,3.30406667 53.9876667,4.13413333 55.5176,5.4688 C57.0475333,6.8034 58.0729333,8.47983333 58.5938,10.4981 C59.0820667,12.3861 59.6273,14.8844667 60.2295,17.9932 C60.8317,21.1019333 61.3525333,24.6175667 61.792,28.5401 C62.2314667,32.4626333 62.4512,36.5560333 62.4512,40.8203 L62.4512,64.8438 C62.4512,66.7643333 62.0931333,68.5465667 61.377,70.1905 C60.6608667,71.83436 59.4808333,73.1689833 57.8369,74.19437 C56.1930333,75.2197633 53.9551,75.73246 51.1231,75.73246 L13.4278,75.73246 Z M35,9.1836 C39.418278,9.1836 43,12.765322 43,17.1836 L43,61.1836 C43,65.601878 39.418278,69.1836 35,69.1836 L28,69.1836 C23.581722,69.1836 20,65.601878 20,61.1836 L20,17.1836 C20,12.765322 23.581722,9.1836 28,9.1836 L35,9.1836 Z M28,12.1836 C25.3112453,12.1836 23.1181819,14.3059067 23.0046195,16.9667104 L23,61.1836 C23,63.8723547 25.1223067,66.0654181 27.7831104,66.1789805 L35,66.1836 C37.6887547,66.1836 39.8818181,64.0612933 39.9953805,61.4004896 L40,17.1836 C40,14.4948453 37.8776933,12.3017819 35.2168896,12.1882195 L28,12.1836 Z M6.4453,90.918 L7.8614,90.918 C8.47986667,90.918 8.95186667,90.6575867 9.2774,90.13676 L17.9688,76.22074 L13.6231,76.22074 L5.5664,89.16019 C5.27346667,89.58337 5.2165,89.9821333 5.3955,90.35648 C5.57456667,90.7308267 5.9245,90.918 6.4453,90.918 Z M10.4492,86.66996 L54.0528,86.66996 L54.0528,83.10551 L10.4492,83.10551 L10.4492,86.66996 Z M56.6895,90.918 L58.1055,90.918 C58.6263,90.918 58.9681,90.7308267 59.1309,90.35648 C59.2936333,89.9821333 59.2285333,89.58337 58.9356,89.16019 L50.8789,76.22074 L46.5821,76.22074 L55.2735,90.13676 C55.5989667,90.6575867 56.0709667,90.918 56.6895,90.918 Z" id="Shape"></path>
                </g>
            </g>
        </g>
    </g>
</svg>