<?xml version="1.0" encoding="UTF-8"?>
<svg width="3300px" height="2200px" viewBox="0 0 3300 2200" version="1.1" xmlns="http://www.w3.org/2000/svg" xmlns:xlink="http://www.w3.org/1999/xlink">
    <title>railway.noprototype</title>
    <g id="Page-1" stroke="none" stroke-width="1" fill="none" fill-rule="evenodd">
        <g id="railway.noprototype">
            <g id="Notes">
                <rect id="artboard" fill="#FFFFFF" fill-rule="nonzero" x="0" y="0" width="3300" height="2200"></rect>
                <line x1="263" y1="292" x2="3036" y2="292" id="Path" stroke="#000000" stroke-width="0.5"></line>
                <text id="Weight/Scale-Variations" fill="#000000" fill-rule="nonzero" font-family="Helvetica" font-size="13" font-weight="normal">
                    <tspan x="263" y="322">Weight/Scale Variations</tspan>
                </text>
                <text id="Ultralight" fill="#000000" fill-rule="nonzero" font-family="Helvetica" font-size="13" font-weight="normal">
                    <tspan x="533.711" y="322">Ultralight</tspan>
                </text>
                <text id="Thin" fill="#000000" fill-rule="nonzero" font-family="Helvetica" font-size="13" font-weight="normal">
                    <tspan x="843.422" y="322">Thin</tspan>
                </text>
                <text id="Light" fill="#000000" fill-rule="nonzero" font-family="Helvetica" font-size="13" font-weight="normal">
                    <tspan x="1138.63" y="322">Light</tspan>
                </text>
                <text id="Regular" fill="#000000" fill-rule="nonzero" font-family="Helvetica" font-size="13" font-weight="normal">
                    <tspan x="1426.84" y="322">Regular</tspan>
                </text>
                <text id="Medium" fill="#000000" fill-rule="nonzero" font-family="Helvetica" font-size="13" font-weight="normal">
                    <tspan x="1723.06" y="322">Medium</tspan>
                </text>
                <text id="Semibold" fill="#000000" fill-rule="nonzero" font-family="Helvetica" font-size="13" font-weight="normal">
                    <tspan x="2015.77" y="322">Semibold</tspan>
                </text>
                <text id="Bold" fill="#000000" fill-rule="nonzero" font-family="Helvetica" font-size="13" font-weight="normal">
                    <tspan x="2326.48" y="322">Bold</tspan>
                </text>
                <text id="Heavy" fill="#000000" fill-rule="nonzero" font-family="Helvetica" font-size="13" font-weight="normal">
                    <tspan x="2618.19" y="322">Heavy</tspan>
                </text>
                <text id="Black" fill="#000000" fill-rule="nonzero" font-family="Helvetica" font-size="13" font-weight="normal">
                    <tspan x="2917.4" y="322">Black</tspan>
                </text>
                <line x1="263" y1="1903" x2="3036" y2="1903" id="Path" stroke="#000000" stroke-width="0.5"></line>
                <g id="Group" transform="translate(264.367190, 1918.068400)" fill="#000000" fill-rule="nonzero">
                    <path d="M7.88086,15.761678 C8.96156,15.761678 9.97717667,15.5566 10.92771,15.146444 C11.8782433,14.7362873 12.7164767,14.166626 13.44241,13.43746 C14.1682767,12.7082933 14.7379433,11.86845 15.15141,10.91793 C15.56481,9.96741 15.77151,8.95504 15.77151,7.88082 C15.77151,6.8066 15.56481,5.79422667 15.15141,4.8437 C14.7379433,3.89316667 14.1666433,3.05333333 13.43751,2.3242 C12.70831,1.595 11.8684767,1.02533333 10.91801,0.6152 C9.96747667,0.205066667 8.95183667,0 7.87109,0 C6.79687,0 5.7845,0.205066667 4.83398,0.6152 C3.88346,1.02533333 3.04687333,1.595 2.32422,2.3242 C1.60156,3.05333333 1.03352333,3.89316667 0.62011,4.8437 C0.206703333,5.79422667 -8.8817842e-16,6.8066 -8.8817842e-16,7.88082 C-8.8817842e-16,8.95504 0.206703333,9.96741 0.62011,10.91793 C1.03352333,11.86845 1.60318667,12.7082933 2.3291,13.43746 C3.05501333,14.166626 3.89323,14.7362873 4.84375,15.146444 C5.79427,15.5566 6.80664,15.761678 7.88086,15.761678 Z M7.88086,14.277303 C6.99544,14.277303 6.16699,14.1129153 5.39551,13.78414 C4.62402333,13.4553667 3.94694,12.99801 3.36426,12.41207 C2.78157333,11.82613 2.32584333,11.14579 1.99707,10.37105 C1.66829,9.59631 1.5039,8.76623333 1.5039,7.88082 C1.5039,6.9954 1.66666333,6.16532 1.99219,5.39058 C2.31771,4.61586 2.77181,3.93553333 3.35449,3.3496 C3.93717,2.76366667 4.61425333,2.3063 5.38574,1.9775 C6.15722667,1.6487 6.98567667,1.4843 7.87109,1.4843 C8.76303667,1.4843 9.59474333,1.6487 10.36621,1.9775 C11.1376767,2.3063 11.8163767,2.76366667 12.40231,3.3496 C12.9882433,3.93553333 13.4472433,4.61586 13.77931,5.39058 C14.11131,6.16532 14.27731,6.9954 14.27731,7.88082 C14.27731,8.76623333 14.1129433,9.59631 13.78421,10.37105 C13.45541,11.14579 12.9996767,11.82613 12.41701,12.41207 C11.8343433,12.99801 11.15561,13.4553667 10.38081,13.78414 C9.60607667,14.1129153 8.77276,14.277303 7.88086,14.277303 Z M4.47265,7.89058 C4.47265,8.10542667 4.54101,8.27958333 4.67773,8.41305 C4.81445,8.54651 4.99674333,8.61324 5.22461,8.61324 L7.13867,8.61324 L7.13867,10.53707 C7.13867,10.7584233 7.2054,10.93746 7.33886,11.07418 C7.47232667,11.2109 7.64648333,11.27926 7.86133,11.27926 C8.08268333,11.27926 8.26171667,11.2109 8.39843,11.07418 C8.53515,10.93746 8.60351,10.7584233 8.60351,10.53707 L8.60351,8.61324 L10.52731,8.61324 C10.74871,8.61324 10.9277433,8.54651 11.06441,8.41305 C11.2011433,8.27958333 11.26951,8.10542667 11.26951,7.89058 C11.26951,7.66922667 11.2011433,7.49019333 11.06441,7.35348 C10.9277433,7.21676 10.74871,7.1484 10.52731,7.1484 L8.60351,7.1484 L8.60351,5.23433 C8.60351,5.00644333 8.53515,4.82416667 8.39843,4.6875 C8.26171667,4.55076667 8.08268333,4.4824 7.86133,4.4824 C7.64648333,4.4824 7.47232667,4.55076667 7.33886,4.6875 C7.2054,4.82416667 7.13867,5.00644333 7.13867,5.23433 L7.13867,7.1484 L5.22461,7.1484 C4.99674333,7.1484 4.81445,7.21676 4.67773,7.35348 C4.54101,7.49019333 4.47265,7.66922667 4.47265,7.89058 Z" id="Shape"></path>
                </g>
                <g id="Group" transform="translate(283.615050, 1915.988300)" fill="#000000" fill-rule="nonzero">
                    <path d="M9.96095,19.92186 C11.3216167,19.92186 12.60255,19.6614433 13.80375,19.14061 C15.0048833,18.6197767 16.06445,17.9003744 16.98245,16.9824031 C17.9003833,16.0644344 18.6197833,15.0048633 19.14065,13.80369 C19.66145,12.6025167 19.92185,11.3215933 19.92185,9.96092 C19.92185,8.60024 19.66145,7.3193 19.14065,6.1181 C18.6197833,4.91696667 17.9003833,3.8574 16.98245,2.9394 C16.06445,2.02146667 15.00325,1.30206667 13.79885,0.7812 C12.5943833,0.2604 11.3118167,0 9.95115,0 C8.59048333,0 7.30956667,0.2604 6.1084,0.7812 C4.90722667,1.30206667 3.84928333,2.02146667 2.93457,2.9394 C2.01985667,3.8574 1.30208333,4.91696667 0.78125,6.1181 C0.260416667,7.3193 8.8817842e-16,8.60024 8.8817842e-16,9.96092 C8.8817842e-16,11.3215933 0.260416667,12.6025167 0.78125,13.80369 C1.30208333,15.0048633 2.02148333,16.0644344 2.93945,16.9824031 C3.85741667,17.9003744 4.91698667,18.6197767 6.11816,19.14061 C7.31933333,19.6614433 8.60026333,19.92186 9.96095,19.92186 Z M9.96095,18.2617 C8.80859667,18.2617 7.73111667,18.0468563 6.72851,17.617169 C5.72591,17.1874813 4.84537667,16.593405 4.08691,15.83494 C3.32845,15.07648 2.73600333,14.1959467 2.30957,13.19334 C1.88313667,12.1907333 1.66992,11.11326 1.66992,9.96092 C1.66992,8.80857333 1.88313667,7.7311 2.30957,6.7285 C2.73600333,5.7259 3.32682333,4.84373333 4.08203,4.082 C4.83723667,3.32026667 5.71614333,2.7262 6.71875,2.2998 C7.72135,1.87333333 8.79881667,1.6601 9.95115,1.6601 C11.1034833,1.6601 12.18095,1.87333333 13.18355,2.2998 C14.18615,2.7262 15.0683167,3.32026667 15.83005,4.082 C16.5917833,4.84373333 17.1874833,5.7259 17.61715,6.7285 C18.0468833,7.7311 18.26175,8.80857333 18.26175,9.96092 C18.26175,11.11326 18.0485167,12.1907333 17.62205,13.19334 C17.19565,14.1959467 16.6032167,15.07648 15.84475,15.83494 C15.0862833,16.593405 14.2041167,17.1874813 13.19825,17.617169 C12.1923833,18.0468563 11.1132833,18.2617 9.96095,18.2617 Z M5.64453,9.97068 C5.64453,10.20506 5.72265333,10.39712 5.8789,10.54686 C6.03515333,10.6966 6.23697667,10.77147 6.48437,10.77147 L9.13085,10.77147 L9.13085,13.43748 C9.13085,13.6783667 9.20571667,13.8753067 9.35545,14.0283 C9.50518333,14.1812933 9.69725,14.25779 9.93165,14.25779 C10.17905,14.25779 10.3808833,14.1812933 10.53715,14.0283 C10.69335,13.8753067 10.77145,13.6783667 10.77145,13.43748 L10.77145,10.77147 L13.42775,10.77147 C13.6686167,10.77147 13.8671833,10.6966 14.02345,10.54686 C14.1797167,10.39712 14.25785,10.20506 14.25785,9.97068 C14.25785,9.72328667 14.1797167,9.52309333 14.02345,9.3701 C13.8671833,9.21710667 13.6686167,9.14061 13.42775,9.14061 L10.77145,9.14061 L10.77145,6.4941 C10.77145,6.24023333 10.69335,6.0368 10.53715,5.8838 C10.3808833,5.7308 10.17905,5.6543 9.93165,5.6543 C9.69725,5.6543 9.50518333,5.7308 9.35545,5.8838 C9.20571667,6.0368 9.13085,6.24023333 9.13085,6.4941 L9.13085,9.14061 L6.48437,9.14061 C6.23046333,9.14061 6.02701333,9.21710667 5.87402,9.3701 C5.72102667,9.52309333 5.64453,9.72328667 5.64453,9.97068 Z" id="Shape"></path>
                </g>
                <g id="Group" transform="translate(307.901860, 1913.224600)" fill="#000000" fill-rule="nonzero">
                    <path d="M12.71484,25.43946 C14.10804,25.43946 15.4378067,25.22299 16.70414,24.79005 C17.9704067,24.3571033 19.13414,23.7500067 20.19534,22.96876 C21.25654,22.1875067 22.1793733,21.2662827 22.96384,20.205088 C23.7483733,19.1438893 24.3571067,17.9785233 24.79004,16.70899 C25.2229733,15.4394633 25.43944,14.11134 25.43944,12.72462 C25.43944,11.3313933 25.2229733,10.0016533 24.79004,8.7354 C24.3571067,7.46906667 23.7483733,6.30533333 22.96384,5.2442 C22.1793733,4.183 21.25654,3.26013333 20.19534,2.4756 C19.13414,1.69106667 17.9687733,1.08233333 16.69924,0.6494 C15.4297067,0.216466667 14.0983067,0 12.70504,0 C11.31184,0 9.98210667,0.216466667 8.71584,0.6494 C7.44955333,1.08233333 6.28743667,1.69106667 5.22949,2.4756 C4.17155,3.26013333 3.25032667,4.183 2.46582,5.2442 C1.68131333,6.30533333 1.07421667,7.46906667 0.64453,8.7354 C0.214843333,10.0016533 0,11.3313933 0,12.72462 C0,14.11134 0.21647,15.4394633 0.64941,16.70899 C1.08235667,17.9785233 1.68945333,19.1438893 2.4707,20.205088 C3.25195333,21.2662827 4.17317667,22.1875067 5.23437,22.96876 C6.29557,23.7500067 7.45929333,24.3571033 8.72554,24.79005 C9.99187333,25.22299 11.32164,25.43946 12.71484,25.43946 Z M12.71484,23.62306 C11.51044,23.62306 10.3629733,23.43914 9.27244,23.0713 C8.18196,22.70346 7.18424667,22.18751 6.2793,21.52345 C5.37434667,20.8593853 4.58821333,20.0732513 3.9209,19.165048 C3.25358,18.2568427 2.73763,17.2574933 2.37305,16.167 C2.00846333,15.0765067 1.82617,13.9290467 1.82617,12.72462 C1.82617,11.51368 2.00846333,10.3629733 2.37305,9.2725 C2.73763,8.18196667 3.25195333,7.1826 3.91602,6.2744 C4.58008,5.3662 5.36458333,4.58006667 6.26953,3.916 C7.17447667,3.25193333 8.17221333,2.73763333 9.26274,2.3731 C10.3532067,2.0085 11.50064,1.8262 12.70504,1.8262 C13.9159733,1.8262 15.0667067,2.0085 16.15724,2.3731 C17.2477067,2.73763333 18.24704,3.25193333 19.15524,3.916 C20.06344,4.58006667 20.8495733,5.3662 21.51364,6.2744 C22.1777067,7.1826 22.6936733,8.18196667 23.06154,9.2725 C23.42934,10.3629733 23.6134125,11.51368 23.6134125,12.72462 C23.6197733,13.9290467 23.44074,15.0765067 23.07614,16.167 C22.7116067,17.2574933 22.1956733,18.2568427 21.52834,19.165048 C20.8610067,20.0732513 20.07324,20.8593853 19.16504,21.52345 C18.25684,22.18751 17.2575067,22.70346 16.16704,23.0713 C15.0765067,23.43914 13.9257733,23.62306 12.71484,23.62306 Z M7.19726,12.73438 C7.19726,12.9882867 7.28352333,13.19825 7.45605,13.36427 C7.62857667,13.5302833 7.84830667,13.61329 8.11524,13.61329 L11.80664,13.61329 L11.80664,17.31446 C11.80664,17.5813867 11.88964,17.7994867 12.05564,17.96876 C12.22164,18.1380333 12.4316067,18.22267 12.68554,18.22267 C12.9590067,18.22267 13.1803733,18.1380333 13.34964,17.96876 C13.5189067,17.7994867 13.60354,17.5813867 13.60354,17.31446 L13.60354,13.61329 L17.30464,13.61329 C17.5715733,13.61329 17.7896733,13.5302833 17.95894,13.36427 C18.1282733,13.19825 18.21294,12.9882867 18.21294,12.73438 C18.21294,12.4609467 18.1282733,12.2395933 17.95894,12.07032 C17.7896733,11.9010533 17.5715733,11.81642 17.30464,11.81642 L13.60354,11.81642 L13.60354,8.125 C13.60354,7.8516 13.5189067,7.63023333 13.34964,7.4609 C13.1803733,7.29163333 12.9590067,7.207 12.68554,7.207 C12.4316067,7.207 12.22164,7.29326667 12.05564,7.4658 C11.88964,7.63833333 11.80664,7.85806667 11.80664,8.125 L11.80664,11.81642 L8.11524,11.81642 C7.8418,11.81642 7.62044333,11.9010533 7.45117,12.07032 C7.28189667,12.2395933 7.19726,12.4609467 7.19726,12.73438 Z" id="Shape"></path>
                </g>
                <text id="Design-Variations" fill="#000000" fill-rule="nonzero" font-family="Helvetica" font-size="13" font-weight="normal">
                    <tspan x="263" y="1953">Design Variations</tspan>
                </text>
                <text id="Symbols-are-supported-in-up-to-nine-weights-and-three-scales." fill="#000000" fill-rule="nonzero" font-family="Helvetica" font-size="13" font-weight="normal">
                    <tspan x="263" y="1971">Symbols are supported in up to nine weights and three scales.</tspan>
                </text>
                <text id="For-optimal-layout-with-text-and-other-symbols,-vertically-align" fill="#000000" fill-rule="nonzero" font-family="Helvetica" font-size="13" font-weight="normal">
                    <tspan x="263" y="1989">For optimal layout with text and other symbols, vertically align</tspan>
                </text>
                <text id="symbols-with-the-adjacent-text." fill="#000000" fill-rule="nonzero" font-family="Helvetica" font-size="13" font-weight="normal">
                    <tspan x="263" y="2007">symbols with the adjacent text.</tspan>
                </text>
                <line x1="776" y1="1919" x2="776" y2="1933" id="Path" stroke="#00AEEF" stroke-width="0.5"></line>
                <g id="Group" transform="translate(778.490230, 1918.732400)" fill="#000000" fill-rule="nonzero">
                    <path d="M0.82032,14.42385 C1.08073333,14.42385 1.28255667,14.3685115 1.42579,14.2578344 C1.56901667,14.1471575 1.68620333,13.9551 1.77735,13.681662 L3.03711,10.2344 L8.79887,10.2344 L10.05857,13.681662 C10.1497033,13.9551 10.2669033,14.1471575 10.41017,14.2578344 C10.55337,14.3685115 10.7519367,14.42385 11.00587,14.42385 C11.26627,14.42385 11.47297,14.3522354 11.62597,14.2090062 C11.77897,14.0657767 11.85547,13.8704643 11.85547,13.623069 C11.85547,13.473329 11.81967,13.297546 11.74807,13.09572 L7.16797,0.8985 C7.05078333,0.598966667 6.89128,0.374333333 6.68946,0.2246 C6.48763333,0.0748666667 6.23047,0 5.91797,0 C5.31250333,0 4.90234667,0.296233333 4.6875,0.8887 L0.10743,13.10549 C0.03581,13.3073133 -4.4408921e-16,13.4830947 -4.4408921e-16,13.632834 C-4.4408921e-16,13.88023 0.0732433333,14.073915 0.21973,14.2138891 C0.366216667,14.353863 0.566413333,14.42385 0.82032,14.42385 Z M3.51563,8.75002 L5.88868,2.1778 L5.9375,2.1778 L8.31057,8.75002 L3.51563,8.75002 Z" id="Shape"></path>
                </g>
                <line x1="793.197" y1="1919" x2="793.197" y2="1933" id="Path" stroke="#00AEEF" stroke-width="0.5"></line>
                <text id="Margins" fill="#000000" fill-rule="nonzero" font-family="Helvetica" font-size="13" font-weight="normal">
                    <tspan x="776" y="1953">Margins</tspan>
                </text>
                <text id="Leading-and-trailing-margins-on-the-left-and-right-side-of-each-symbol" fill="#000000" fill-rule="nonzero" font-family="Helvetica" font-size="13" font-weight="normal">
                    <tspan x="776" y="1971">Leading and trailing margins on the left and right side of each symbol</tspan>
                </text>
                <text id="can-be-adjusted-by-modifying-the-x-location-of-the-margin-guidelines." fill="#000000" fill-rule="nonzero" font-family="Helvetica" font-size="13" font-weight="normal">
                    <tspan x="776" y="1989">can be adjusted by modifying the x-location of the margin guidelines.</tspan>
                </text>
                <text id="Modifications-are-automatically-applied-proportionally-to-all" fill="#000000" fill-rule="nonzero" font-family="Helvetica" font-size="13" font-weight="normal">
                    <tspan x="776" y="2007">Modifications are automatically applied proportionally to all</tspan>
                </text>
                <text id="scales-and-weights." fill="#000000" fill-rule="nonzero" font-family="Helvetica" font-size="13" font-weight="normal">
                    <tspan x="776" y="2025">scales and weights.</tspan>
                </text>
                <g id="Group" transform="translate(1291.246849, 1914.517550)" fill="#000000" fill-rule="nonzero">
                    <path d="M0.594951479,20.3476805 L2.29417148,22.0566705 C2.72385815,22.4928705 3.17795815,22.6946938 3.65647148,22.6621405 C4.13498481,22.6295872 4.60536148,22.3561505 5.06760148,21.8418305 L15.7609515,10.0547205 L14.7941515,9.07815049 L4.17893148,20.7578405 C4.00315148,20.9596605 3.82574148,21.0735938 3.64670148,21.0996405 C3.46766815,21.1256805 3.26096481,21.0215138 3.02659148,20.7871405 L1.85471148,19.6250305 C1.62033815,19.3906545 1.51780148,19.1839482 1.54710148,19.0049115 C1.57639481,18.8258748 1.69195148,18.6452108 1.89377148,18.4629193 L13.3683515,7.66215049 L12.3918515,6.69535049 L0.800031479,17.5840125 C0.305238146,18.0397418 0.039938146,18.5052368 0.00413147929,18.9804975 C-0.0316751874,19.4557595 0.165264813,19.9114872 0.594951479,20.3476805 Z M7.01096148,2.15435049 C6.80262815,2.35615049 6.68544148,2.58725049 6.65940148,2.84765049 C6.63336148,3.10811716 6.67893481,3.33598382 6.79612148,3.53125049 C6.91330815,3.71358382 7.08420481,3.85031716 7.30881148,3.94145049 C7.53342481,4.03258382 7.80850481,4.03908382 8.13405148,3.96095049 C8.86318481,3.79168382 9.60211815,3.72171716 10.3508515,3.75105049 C11.0995181,3.78031716 11.8319181,4.02931716 12.5480515,4.49805049 L11.9621515,5.95315049 C11.7928848,6.36981716 11.7456848,6.73278382 11.8205515,7.04205049 C11.8954181,7.35125049 12.0663181,7.64258382 12.3332515,7.91605049 L14.6281515,10.2305005 C14.8690181,10.4778938 15.1033848,10.6211205 15.3312515,10.6601805 C15.5591181,10.6992472 15.8130181,10.6927372 16.0929515,10.6406505 L17.1574515,10.4453405 L17.8215515,11.1191705 L17.7824515,11.6758105 C17.7629181,11.9232038 17.7938515,12.1510672 17.8752515,12.3594005 C17.9565848,12.5677338 18.1177181,12.7923438 18.3586515,13.0332305 L19.1203515,13.7754205 C19.3612181,14.0163072 19.6232515,14.1416338 19.9064515,14.1514005 C20.1896515,14.1611605 20.4484515,14.0488538 20.6828515,13.8144805 L23.5929515,10.8945605 C23.8273515,10.6601872 23.9412848,10.4046538 23.9347515,10.1279605 C23.9282848,9.85126716 23.8045848,9.59247716 23.5636515,9.35159049 L22.7922515,8.58987049 C22.5578515,8.34899049 22.3381181,8.18461716 22.1330515,8.09675049 C21.9279848,8.00881716 21.7049848,7.97461716 21.4640515,7.99415049 L20.8879515,8.04295049 L20.2433515,7.40825049 L20.4875515,6.28515049 C20.5526181,6.00521716 20.5395848,5.74318382 20.4484515,5.49905049 C20.3573181,5.25491716 20.1652515,4.98635049 19.8722515,4.69335049 L17.6750515,2.50585049 C16.8417181,1.67905049 15.9546515,1.05895049 15.0138515,0.64555049 C14.0731181,0.23215049 13.1258515,0.0173171567 12.1720515,0.00105049002 C11.2183181,-0.0152828433 10.3003515,0.15885049 9.41815148,0.52345049 C8.53601815,0.88805049 7.73362148,1.43168382 7.01096148,2.15435049 Z M8.50515148,2.52545049 C9.11061815,2.08271716 9.76001815,1.76695049 10.4533515,1.57815049 C11.1466848,1.38935049 11.8481848,1.32911716 12.5578515,1.39745049 C13.2674515,1.46585049 13.9559181,1.65628382 14.6232515,1.96875049 C15.2905848,2.28128382 15.9009515,2.71748382 16.4543515,3.27735049 L18.8859515,5.68945049 C19.0031515,5.80665049 19.0763848,5.92058382 19.1056515,6.03125049 C19.1349848,6.14191716 19.1301181,6.28191716 19.0910515,6.45125049 L18.7687515,7.93555049 L20.2726515,9.41995049 L21.2590515,9.36136049 C21.3827181,9.35484716 21.4771181,9.36298382 21.5422515,9.38577049 C21.6073181,9.40855716 21.6886848,9.46877716 21.7863515,9.56643049 L22.3625515,10.1426105 L19.9211515,12.5840105 L19.3449515,12.0078405 C19.2472848,11.9101872 19.1854181,11.8288072 19.1593515,11.7637005 C19.1333515,11.6985938 19.1236181,11.6009372 19.1301515,11.4707305 L19.1984515,10.4941705 L17.7043515,9.00979049 L16.1808515,9.26370049 C16.0181181,9.29625382 15.8895515,9.30113716 15.7951515,9.27835049 C15.7007515,9.25556382 15.5916848,9.18557716 15.4679515,9.06839049 L13.4660515,7.06645049 C13.3358515,6.94925049 13.2626181,6.83695049 13.2463515,6.72955049 C13.2300848,6.62208382 13.2609848,6.47721716 13.3390515,6.29495049 L14.2179515,4.20515049 C13.4367515,3.47595049 12.5578515,2.97138382 11.5812515,2.69145049 C10.6047181,2.41151716 9.60861815,2.42128382 8.59295148,2.72075049 C8.51488481,2.74028382 8.46445148,2.72561716 8.44165148,2.67675049 C8.41885148,2.62795049 8.44001815,2.57751716 8.50515148,2.52545049 Z" id="Shape"></path>
                </g>
                <text id="Exporting" fill="#000000" fill-rule="nonzero" font-family="Helvetica" font-size="13" font-weight="normal">
                    <tspan x="1289" y="1953">Exporting</tspan>
                </text>
                <text id="Symbols-should-be-outlined-when-exporting-to-ensure-the" fill="#000000" fill-rule="nonzero" font-family="Helvetica" font-size="13" font-weight="normal">
                    <tspan x="1289" y="1971">Symbols should be outlined when exporting to ensure the</tspan>
                </text>
                <text id="design-is-preserved-when-submitting-to-Xcode." fill="#000000" fill-rule="nonzero" font-family="Helvetica" font-size="13" font-weight="normal">
                    <tspan x="1289" y="1989">design is preserved when submitting to Xcode.</tspan>
                </text>
                <text id="template-version" fill="#000000" fill-rule="nonzero" font-family="Helvetica" font-size="13" font-weight="normal">
                    <tspan x="2952" y="1933">Template v.3.0</tspan>
                </text>
                <text id="Requires-Xcode-13-or-greater" fill="#000000" fill-rule="nonzero" font-family="Helvetica" font-size="13" font-weight="normal">
                    <tspan x="2865" y="1951">Requires Xcode 13 or greater</tspan>
                </text>
                <text id="descriptive-name" fill="#000000" fill-rule="nonzero" font-family="Helvetica" font-size="13" font-weight="normal">
                    <tspan x="2915" y="1969">Generated from tram</tspan>
                </text>
                <text id="Typeset-at-100-points" fill="#000000" fill-rule="nonzero" font-family="Helvetica" font-size="13" font-weight="normal">
                    <tspan x="2912" y="1987">Typeset at 100 points</tspan>
                </text>
                <text id="Small" fill="#000000" fill-rule="nonzero" font-family="Helvetica" font-size="13" font-weight="normal">
                    <tspan x="263" y="726">Small</tspan>
                </text>
                <text id="Medium" fill="#000000" fill-rule="nonzero" font-family="Helvetica" font-size="13" font-weight="normal">
                    <tspan x="263" y="1156">Medium</tspan>
                </text>
                <text id="Large" fill="#000000" fill-rule="nonzero" font-family="Helvetica" font-size="13" font-weight="normal">
                    <tspan x="263" y="1586">Large</tspan>
                </text>
            </g>
            <g id="Guides" transform="translate(263.000000, 600.785000)">
                <g id="H-reference" transform="translate(76.976562, 24.756000)" fill="#27AAE1" fill-rule="nonzero">
                    <path d="M-1.22124533e-15,70.459 L2.685548,70.459 L28.369138,3.3203 L29.052738,3.3203 L29.052738,0 L27.148438,0 L-1.22124533e-15,70.459 Z M10.693338,45.9961 L45.996138,45.9961 L45.263638,43.75 L11.474638,43.75 L10.693338,45.9961 Z M54.150438,70.459 L56.787138,70.459 L29.638638,0 L28.466838,0 L28.466838,3.3203 L54.150438,70.459 Z" id="Shape"></path>
                </g>
                <line x1="0" y1="95.215" x2="2773" y2="95.215" id="Baseline-S" stroke="#27AAE1" stroke-width="0.5"></line>
                <line x1="0" y1="24.756" x2="2773" y2="24.756" id="Capline-S" stroke="#27AAE1" stroke-width="0.5"></line>
                <g id="H-reference" transform="translate(76.976562, 454.756000)" fill="#27AAE1" fill-rule="nonzero">
                    <path d="M-1.22124533e-15,70.459 L2.685548,70.459 L28.369138,3.3203 L29.052738,3.3203 L29.052738,0 L27.148438,0 L-1.22124533e-15,70.459 Z M10.693338,45.9961 L45.996138,45.9961 L45.263638,43.75 L11.474638,43.75 L10.693338,45.9961 Z M54.150438,70.459 L56.787138,70.459 L29.638638,0 L28.466838,0 L28.466838,3.3203 L54.150438,70.459 Z" id="Shape"></path>
                </g>
                <line x1="0" y1="525.215" x2="2773" y2="525.215" id="Baseline-M" stroke="#27AAE1" stroke-width="0.5"></line>
                <line x1="0" y1="454.755" x2="2773" y2="454.755" id="Capline-M" stroke="#27AAE1" stroke-width="0.5"></line>
                <g id="H-reference" transform="translate(76.976562, 884.756000)" fill="#27AAE1" fill-rule="nonzero">
                    <path d="M-1.22124533e-15,70.459 L2.685548,70.459 L28.369138,3.3203 L29.052738,3.3203 L29.052738,0 L27.148438,0 L-1.22124533e-15,70.459 Z M10.693338,45.9961 L45.996138,45.9961 L45.263638,43.75 L11.474638,43.75 L10.693338,45.9961 Z M54.150438,70.459 L56.787138,70.459 L29.638638,0 L28.466838,0 L28.466838,3.3203 L54.150438,70.459 Z" id="Shape"></path>
                </g>
                <line x1="0" y1="955.215" x2="2773" y2="955.215" id="Baseline-L" stroke="#27AAE1" stroke-width="0.5"></line>
                <line x1="0" y1="884.755" x2="2773" y2="884.755" id="Capline-L" stroke="#27AAE1" stroke-width="0.5"></line>
                <line x1="254.67" y1="1.13686838e-13" x2="254.67" y2="119.336" id="left-margin-Ultralight-S" stroke="#00AEEF" stroke-width="0.5"></line>
                <line x1="338.752" y1="1.13686838e-13" x2="338.752" y2="119.336" id="right-margin-Ultralight-S" stroke="#00AEEF" stroke-width="0.5"></line>
                <line x1="1141.8" y1="1.13686838e-13" x2="1141.8" y2="119.336" id="left-margin-Regular-S" stroke="#00AEEF" stroke-width="0.5"></line>
                <line x1="1231.89" y1="1.13686838e-13" x2="1231.89" y2="119.336" id="right-margin-Regular-S" stroke="#00AEEF" stroke-width="0.5"></line>
                <line x1="2618.94" y1="1.13686838e-13" x2="2618.94" y2="119.336" id="left-margin-Black-S" stroke="#00AEEF" stroke-width="0.5"></line>
                <line x1="2721.86" y1="1.13686838e-13" x2="2721.86" y2="119.336" id="right-margin-Black-S" stroke="#00AEEF" stroke-width="0.5"></line>
            </g>
            <g id="Symbols" transform="translate(527.435620, 603.519500)" fill="#000000" fill-rule="nonzero">
                <g id="Black-S" transform="translate(2364.270000, 0.000000)">
                    <path d="M18.60348,95.9473 L64.79488,95.9473 C68.7011467,95.9473 72.0377467,95.20674 74.80468,93.72562 C77.5716133,92.2444987 79.6956467,90.1123353 81.17678,87.32913 C82.6579133,84.54593 83.39848,81.2174867 83.39848,77.3438 L83.39848,45.5078 C83.39848,41.6341333 83.3415133,38.5254333 83.22758,36.1817 C83.1136467,33.8379 82.9427467,31.8278 82.71488,30.1514 C82.4870133,28.4749333 82.2103133,26.7578 81.88478,25 C80.9733133,19.9544667 79.5898467,15.8041 77.73438,12.5489 C75.8789133,9.29363333 73.4049467,6.75456667 70.31248,4.9317 C67.22008,3.10876667 63.34638,1.82296667 58.69138,1.0743 C56.3151133,0.683633333 53.71908,0.406933333 50.90328,0.2442 C48.0875467,0.0814 45.0195133,0 41.69918,0 C38.3789133,0 35.31088,0.0814 32.49508,0.2442 C29.6793467,0.406933333 27.0833467,0.683633333 24.70708,1.0743 C20.05208,1.82296667 16.17838,3.10876667 13.08598,4.9317 C9.99351333,6.75456667 7.52768,9.29363333 5.68848,12.5489 C3.84928,15.8041 2.45768,19.9544667 1.51368,25 C1.18814667,26.7578 0.911446667,28.4749333 0.68358,30.1514 C0.455713333,31.8278 0.28482,33.8379 0.1709,36.1817 C0.0569666667,38.5254333 0,41.6341333 0,45.5078 L0,77.3438 C0,81.2174867 0.74056,84.54593 2.22168,87.32913 C3.70281333,90.1123353 5.83498,92.2444987 8.61818,93.72562 C11.40138,95.20674 14.7298133,95.9473 18.60348,95.9473 Z M20.26368,84.42386 C18.4082133,84.42386 16.8131467,84.0657867 15.47848,83.34964 C14.14388,82.63348 13.1185133,81.5999667 12.40238,80.2491 C11.6862467,78.8981667 11.32818,77.2787 11.32818,75.3907 L11.32818,45.5078 C11.32818,41.6341333 11.39328,38.6068 11.52348,36.4258 C11.65368,34.2448 11.8327133,32.3974667 12.06058,30.8838 C12.2884467,29.3701333 12.5488467,27.7018333 12.84178,25.8789 C13.6230467,21.2239667 15.06348,17.9118 17.16308,15.9424 C19.26268,13.973 22.5097467,12.6953333 26.90428,12.1094 C28.82488,11.849 31.0140133,11.6862333 33.47168,11.6211 C35.9293467,11.5560333 38.6718467,11.5235 41.69918,11.5235 C44.72658,11.5235 47.4691133,11.5560333 49.92678,11.6211 C52.3844467,11.6862333 54.57358,11.849 56.49418,12.1094 C60.8887133,12.6953333 64.13578,13.973 66.23538,15.9424 C68.33498,17.9118 69.7754133,21.2239667 70.55668,25.8789 C70.8821467,27.7018333 71.15068,29.3701333 71.36228,30.8838 C71.57388,32.3974667 71.74478,34.2448 71.87498,36.4258 C72.00518,38.6068 72.07028,41.6341333 72.07028,45.5078 L72.07028,75.3907 C72.07028,77.2787 71.7122133,78.8981667 70.99608,80.2491 C70.2799467,81.5999667 69.2627133,82.63348 67.94438,83.34964 C66.62598,84.0657867 65.02278,84.42386 63.13478,84.42386 L20.26368,84.42386 Z M22.3570995,70.3287093 C23.5471545,71.5251018 24.8750767,72.3227043 26.3408663,72.721517 C27.8066856,73.1203296 29.2688639,73.0907907 30.7274012,72.6329003 C32.1859385,72.17501 33.4957301,71.2666283 34.656776,69.9077554 C35.4985142,68.9329091 36.3583979,67.8029747 37.2364272,66.5179523 C38.1144564,65.2329293 39.0287618,63.874054 39.9793434,62.4413263 C40.9299548,61.0085956 41.9422401,59.575871 43.0161993,58.1431524 C44.0901289,56.7104339 45.2511599,55.3589358 46.4992924,54.0886584 C47.0507616,53.5274046 47.6203913,53.1322976 48.2081814,52.9033373 C48.7959417,52.6744073 49.416367,52.5230224 50.0694571,52.4491828 C50.7225176,52.3753129 51.4155101,52.3162201 52.1484346,52.2719042 C52.8813294,52.2275883 53.6650197,52.1279003 54.4995057,51.9728401 C55.3339916,51.8177497 56.2228992,51.5334172 57.1662286,51.1198427 C58.6900957,50.4551651 60.0034688,49.4655448 61.106348,48.1509817 C62.209346,46.8364186 62.9785616,45.3335358 63.4139947,43.6423331 C63.8494277,41.9511305 63.8348638,40.2119215 63.3703027,38.4247062 L55.577091,40.5959269 C55.34487,40.6550046 55.1562071,40.6328467 55.0111024,40.5294531 C54.8659679,40.4260594 54.7571096,40.2635881 54.6845276,40.042039 L54.162097,38.1809538 C54.1040195,37.9594047 54.1148979,37.7637039 54.1947322,37.5938516 C54.2745666,37.4239993 54.4305794,37.3095343 54.6627708,37.2504566 L62.6083692,35.0349049 C62.4487599,34.4145431 62.1876487,33.7018592 61.8250355,32.896853 C61.462125,32.0918771 60.961377,31.3644464 60.3227914,30.714561 C59.1762798,29.5181534 57.8664882,28.6097687 56.3934166,27.989407 C54.9203748,27.3690452 53.3965225,27.040412 51.8218598,27.0035074 C50.2472268,26.9665724 48.7161222,27.2213509 47.2285461,27.7678427 C45.7409701,28.3143648 44.4094068,29.1562757 43.2338564,30.2935753 C41.869658,31.6229305 40.8973047,32.9227317 40.3167966,34.1929789 C39.7362588,35.4632261 39.384316,36.6817765 39.260968,37.8486301 C39.1376201,39.0154837 39.0904507,40.1084976 39.1194597,41.127672 C39.1484985,42.1468161 39.10497,43.0736531 38.9888744,43.908183 C38.872749,44.7427129 38.51718,45.4627778 37.9221674,46.0683776 C36.7611215,47.2352312 35.5021255,48.3430071 34.1451793,49.3917052 C32.7882331,50.4404032 31.4167676,51.4447855 30.0307826,52.4048518 C28.6447977,53.3649182 27.3204867,54.2880647 26.0578497,55.1742914 C24.7952424,56.0605181 23.6850069,56.9393639 22.7271433,57.8108288 C21.4064882,59.0072061 20.5248373,60.3476176 20.0821906,61.8320632 C19.6395469,63.3164756 19.6141491,64.8045866 20.0059972,66.2963962 C20.3978484,67.7882065 21.1815491,69.1323108 22.3570995,70.3287093 Z M8.54488,114.2578 L12.10938,114.2578 C13.86718,114.2578 15.23438,113.492833 16.21098,111.9629 L30.51758,88.96488 L17.62698,88.96488 L5.56638,108.3008 C4.85024667,109.472667 4.72818,110.758467 5.20018,112.1582 C5.67218,113.557933 6.78708,114.2578 8.54488,114.2578 Z M14.06248,108.8379 L67.82228,108.8379 L67.82228,99.46292 L14.06248,99.46292 L14.06248,108.8379 Z M69.77538,114.2578 L72.36328,114.2578 C74.12108,114.2578 75.38248,113.5254 76.14748,112.0606 C76.9124133,110.595733 76.82288,109.1146 75.87888,107.6172 L64.25778,88.96488 L51.36718,88.96488 L65.67388,111.9629 C66.6504133,113.492833 68.01758,114.2578 69.77538,114.2578 Z" id="Shape"></path>
                </g>
                <g id="Regular-S" transform="translate(887.130000, 8.398500)">
                    <path d="M14.35548,81.49411 L56.20118,81.49411 C59.0983133,81.49411 61.6211133,80.8674833 63.76958,79.61423 C65.91798,78.36097 67.5862467,76.6031567 68.77438,74.34079 C69.96258,72.0783967 70.55668,69.4661 70.55668,66.5039 L70.55668,43.2617 C70.55668,40.0390333 70.4346133,36.8001 70.19048,33.5449 C69.94628,30.2897 69.6126133,27.1728333 69.18948,24.1943 C68.76628,21.2157667 68.2617133,18.5220667 67.67578,16.1132 C66.99218,13.1835333 65.90168,10.6200667 64.40428,8.4228 C62.90688,6.22553333 61.0595467,4.46773333 58.86228,3.1494 C56.6650133,1.831 54.1992133,1.02533333 51.46488,0.7324 C50.4232133,0.634733333 48.3805467,0.488233333 45.33688,0.2929 C42.29328,0.0976333333 38.93228,0 35.25388,0 C31.1523467,0 27.6937133,0.0976333333 24.87798,0.2929 C22.06218,0.488233333 20.11718,0.634733333 19.04298,0.7324 C16.34118,1.02533333 13.8916467,1.831 11.69438,3.1494 C9.49711333,4.46773333 7.64978,6.22553333 6.15238,8.4228 C4.65498,10.6200667 3.56448,13.1835333 2.88088,16.1132 C2.29494667,18.5220667 1.79038,21.1832 1.36718,24.0966 C0.94398,27.0100667 0.610313333,30.0537 0.36618,33.2275 C0.12206,36.4013 0,39.6158333 0,42.8711 L0,66.5039 C0,69.4661 0.594093333,72.0783967 1.78228,74.34079 C2.97041333,76.6031567 4.63868,78.36097 6.78708,79.61423 C8.93554667,80.8674833 11.4583467,81.49411 14.35548,81.49411 Z M15.28318,75.83005 C13.10218,75.83005 11.30368,75.4394233 9.88768,74.65817 C8.47168,73.8769233 7.41374667,72.7864333 6.71388,71.3867 C6.01401333,69.9869667 5.66408,68.3593667 5.66408,66.5039 L5.66408,42.8711 C5.66408,39.7786333 5.76988,36.7106 5.98148,33.667 C6.19308,30.6233333 6.50231333,27.7262 6.90918,24.9756 C7.31611333,22.2249333 7.79624667,19.7102667 8.34958,17.4316 C9.13084667,14.1764 10.4980467,11.5966667 12.45118,9.6924 C14.4043133,7.78806667 16.79688,6.68943333 19.62888,6.3965 C20.6705467,6.29883333 22.53418,6.15233333 25.21978,5.957 C27.9053133,5.76166667 31.2500133,5.664 35.25388,5.664 C38.80208,5.664 42.0410133,5.76166667 44.97068,5.957 C47.9004133,6.15233333 49.8861133,6.29883333 50.92778,6.3965 C53.75978,6.68943333 56.1523467,7.78806667 58.10548,9.6924 C60.0586133,11.5966667 61.4258133,14.1764 62.20708,17.4316 C62.7604133,19.7102667 63.2324133,22.2574667 63.62308,25.0732 C64.01368,27.8889333 64.3229133,30.8511667 64.55078,33.9599 C64.7786467,37.0686333 64.89258,40.1692333 64.89258,43.2617 L64.89258,66.5039 C64.89258,68.3593667 64.5426467,69.9869667 63.84278,71.3867 C63.1429133,72.7864333 62.08498,73.8769233 60.66898,74.65817 C59.2529133,75.4394233 57.4544133,75.83005 55.27348,75.83005 L15.28318,75.83005 Z M17.5758319,60.9517435 C18.5354607,61.9147147 19.6077664,62.553049 20.7927489,62.8667464 C21.9777313,63.1804497 23.1627138,63.1512676 24.3476963,62.7792 C25.532649,62.4071444 26.6049397,61.6666771 27.5645686,60.5577982 C28.3351719,59.6677763 29.1421184,58.6172602 29.9854078,57.4062499 C30.828727,56.1952396 31.7156549,54.9003388 32.6461915,53.5215477 C33.576728,52.1427327 34.572685,50.7602722 35.6340624,49.3741662 C36.6954697,47.98809 37.8368286,46.6822452 39.0581392,45.4566319 C39.8142113,44.6979146 40.5957131,44.1872424 41.4026446,43.9246152 C42.2096059,43.661988 43.0456446,43.4978498 43.9107608,43.4322005 C44.7758769,43.3665512 45.6664227,43.2790138 46.5823982,43.1695883 C47.4984035,43.0601329 48.447119,42.8011513 49.4285447,42.3926434 C50.4099705,41.9841056 51.4168408,41.2910525 52.4491557,40.3134843 C53.1906668,39.6131253 53.8049698,38.8361803 54.2920648,37.9826495 C54.7791299,37.1290889 55.1135424,36.2755431 55.2953023,35.4220123 C55.4770323,34.5684815 55.4806651,33.7842455 55.3062007,33.0693044 L48.5670763,34.9295976 C48.1018081,35.0463141 47.6910618,34.9624073 47.3348375,34.6778771 C46.9786132,34.3933768 46.7205345,33.9666114 46.5606013,33.3975809 L46.0590049,31.6904894 C45.8990419,31.1214589 45.917206,30.6253837 46.1134971,30.2022639 C46.3097882,29.779144 46.6405679,29.5019198 47.1058362,29.3705913 L53.8231637,27.5540892 C53.7359166,27.2331038 53.5505239,26.8610511 53.2669857,26.4379313 C52.9834773,26.0147815 52.6454319,25.6062437 52.2528497,25.2123179 C51.2496271,24.1763914 50.111901,23.3994465 48.8396714,22.8814832 C47.5674716,22.3635199 46.2589139,22.0972472 44.9139983,22.0826651 C43.5690826,22.0680532 42.2677756,22.2941952 41.0100773,22.7610912 C39.7524088,23.2279873 38.643775,23.9210403 37.6841759,24.8402503 C36.5355216,25.9345351 35.7285603,27.0324655 35.263292,28.1340413 C34.7980237,29.2356471 34.5217809,30.3226409 34.4345636,31.3950227 C34.3473165,32.4674343 34.3036929,33.4997154 34.3036929,34.4918657 C34.3036929,35.4840161 34.2055474,36.4178082 34.0092563,37.293242 C33.8129652,38.1686759 33.3513297,38.9711544 32.6243499,39.7006776 C31.5048177,40.8241565 30.2798593,41.8965532 28.949475,42.9178678 C27.6190906,43.9392122 26.2778077,44.913135 24.9256265,45.839636 C23.5734452,46.7661371 22.29395,47.6525075 21.0871408,48.4987473 C19.8803615,49.344987 18.8335153,50.1547566 17.9466023,50.928056 C16.8416013,51.8910421 16.1037141,52.9670949 15.7329407,54.1562141 C15.3621792,55.3453423 15.3367346,56.534469 15.6566069,57.7235943 C15.9764912,58.9127195 16.6162328,59.9887692 17.5758319,60.9517435 Z M8.78908,97.1679 L11.08398,97.1679 C12.1256467,97.1679 12.9394467,96.6959 13.52538,95.7519 L24.90238,77.44138 L16.89458,77.44138 L6.88478,93.50583 C6.36391333,94.3847433 6.30694667,95.2148333 6.71388,95.9961 C7.12074667,96.7773 7.81248,97.1679 8.78908,97.1679 Z M12.01168,92.18747 L58.64258,92.18747 L58.64258,85.9863 L12.01168,85.9863 L12.01168,92.18747 Z M59.61918,97.1679 L61.91408,97.1679 C62.8906133,97.1679 63.56608,96.7691333 63.94048,95.9716 C64.3148133,95.1741333 64.2415467,94.35221 63.72068,93.50583 L53.80858,77.44138 L45.84958,77.44138 L57.22658,95.7519 C57.77998,96.6959 58.5775133,97.1679 59.61918,97.1679 Z" id="Shape"></path>
                </g>
                <g id="Ultralight-S" transform="translate(0.000000, 11.816400)">
                    <path d="M13.13478,77.83207 L51.41598,77.83207 C54.6061133,77.83207 57.1696133,77.2298567 59.10648,76.02543 C61.04328,74.8210033 62.43488,73.23409 63.28128,71.26469 C64.1276133,69.2952967 64.55078,67.155 64.55078,64.8438 L64.55078,40.8203 C64.55078,36.5885667 64.35548,32.5033 63.96488,28.5645 C63.5742133,24.6257 63.0940467,21.0775333 62.52438,17.92 C61.9547133,14.7624 61.3932133,12.2070333 60.83988,10.2539 C60.3190133,8.4961 59.56218,6.95803333 58.56938,5.6397 C57.5765133,4.3213 56.3639467,3.26336667 54.93168,2.4659 C53.4993467,1.66836667 51.90428,1.15566667 50.14648,0.9278 C48.0631467,0.667333333 45.4752467,0.4476 42.38278,0.2686 C39.29038,0.0895333333 35.9375133,0 32.32418,0 C28.6458467,0 25.26858,0.0895333333 22.19238,0.2686 C19.1162467,0.4476 16.5202133,0.667333333 14.40428,0.9278 C12.64648,1.15566667 11.0514467,1.66836667 9.61918,2.4659 C8.18684667,3.26336667 6.97428,4.3213 5.98148,5.6397 C4.98861333,6.95803333 4.24804667,8.4961 3.75978,10.2539 C3.20638,12.2070333 2.63671333,14.7624 2.05078,17.92 C1.46484667,21.0775333 0.97658,24.6175667 0.58598,28.5401 C0.195326667,32.4626333 1.77635684e-15,36.5560333 1.77635684e-15,40.8203 L1.77635684e-15,64.8438 C1.77635684e-15,67.155 0.431326667,69.2952967 1.29398,71.26469 C2.15658,73.23409 3.55631333,74.8210033 5.49318,76.02543 C7.43004667,77.2298567 9.97724667,77.83207 13.13478,77.83207 Z M13.42778,75.73246 C10.5957133,75.73246 8.35774667,75.2197633 6.71388,74.19437 C5.07001333,73.1689833 3.89001333,71.83436 3.17388,70.1905 C2.45768,68.5465667 2.09958,66.7643333 2.09958,64.8438 L2.09958,40.8203 C2.09958,36.5560333 2.32744667,32.4626333 2.78318,28.5401 C3.23891333,24.6175667 3.76788,21.1019333 4.37008,17.9932 C4.97234667,14.8844667 5.51761333,12.3861 6.00588,10.4981 C6.49414667,8.47983333 7.50324667,6.8034 9.03318,5.4688 C10.56318,4.13413333 12.4512133,3.30406667 14.69728,2.9786 C17.13868,2.65306667 19.8730467,2.4252 22.90038,2.295 C25.9277133,2.16473333 29.06898,2.0996 32.32418,2.0996 C35.5143133,2.0996 38.6230467,2.16473333 41.65038,2.295 C44.6777133,2.4252 47.4446467,2.65306667 49.95118,2.9786 C52.13218,3.30406667 53.9876467,4.13413333 55.51758,5.4688 C57.0475133,6.8034 58.0729133,8.47983333 58.59378,10.4981 C59.0820467,12.3861 59.62728,14.8844667 60.22948,17.9932 C60.83168,21.1019333 61.3525133,24.6175667 61.79198,28.5401 C62.2314467,32.4626333 62.45118,36.5560333 62.45118,40.8203 L62.45118,64.8438 C62.45118,66.7643333 62.0931133,68.5465667 61.37698,70.1905 C60.6608467,71.83436 59.4808133,73.1689833 57.83688,74.19437 C56.1930133,75.2197633 53.95508,75.73246 51.12308,75.73246 L13.42778,75.73246 Z M14.4829416,56.7548932 C15.3298695,57.6352489 16.2789964,58.211151 17.3303222,58.4825997 C18.381648,58.7540364 19.4329738,58.7210195 20.4842996,58.3835492 C21.5356553,58.0460819 22.5066872,57.3711443 23.3973955,56.3587363 C24.1712964,55.4930538 24.9889925,54.4366279 25.850484,53.1894587 C26.7120054,51.9422864 27.6392271,50.5997492 28.6321492,49.1618471 C29.6250713,47.723921 30.6764121,46.2786627 31.7861715,44.8260724 C32.8959009,43.3734822 34.0786424,42.0236159 35.334396,40.7764737 C36.181294,39.9401375 37.0099502,39.3935831 37.8203646,39.1368106 C38.6307791,38.880038 39.4448269,38.7443047 40.2625081,38.7296105 C41.0802192,38.7149464 41.9344289,38.678271 42.8251372,38.6195845 C43.7158454,38.5608979 44.6503638,38.3261366 45.6286925,37.9153005 C46.6070212,37.5044645 47.658362,36.741494 48.7827148,35.6263891 C49.3521879,35.0834857 49.8377039,34.4782447 50.2392627,33.8106662 C50.6407917,33.1430577 50.9547301,32.4571039 51.1810779,31.7528049 C51.4073959,31.048536 51.5351632,30.3735954 51.56438,29.727983 L45.6944079,31.3126557 C44.7891062,31.5620661 44.0955141,31.4813683 43.6136315,31.0705623 C43.1317788,30.6597262 42.7959353,30.1168379 42.606101,29.4418973 L42.0366428,27.5490976 C41.8468384,26.874187 41.8614468,26.2396028 42.080468,25.6453449 C42.2994892,25.0511171 42.8616507,24.636615 43.7669523,24.4018387 L49.5930993,22.8172111 C49.4616985,22.6264572 49.312026,22.4173732 49.1440818,22.189959 C48.9761676,21.9625447 48.7826998,21.7461286 48.5636786,21.5407106 C47.6583769,20.6163295 46.6216446,19.9157116 45.4534815,19.4388569 C44.2853484,18.9620023 43.0770534,18.7052297 41.8285966,18.6685393 C40.5801098,18.631849 39.3717999,18.8225878 38.2036667,19.240756 C37.0355037,19.6589241 35.984163,20.3008554 35.0496445,21.1665499 C33.9691318,22.2229683 33.2244477,23.2830677 32.8155921,24.3468482 C32.4067366,25.4105986 32.1621469,26.467017 32.0818232,27.5161033 C32.0015294,28.5651896 31.9467741,29.6069439 31.9175573,30.641366 C31.8883704,31.6757882 31.7277528,32.677186 31.4357046,33.6455595 C31.1436564,34.6139631 30.5522781,35.5456762 29.6615699,36.440699 C28.5810273,37.5264757 27.369084,38.5865751 26.0257399,39.6209973 C24.6823658,40.6554195 23.320735,41.6494853 21.9408475,42.6031946 C20.5609899,43.556904 19.250481,44.470272 18.0093209,45.3432986 C16.7681607,46.2163252 15.71682,47.0269841 14.8552986,47.7752755 C13.8477831,48.6702982 13.1761005,49.6460248 12.840251,50.7024552 C12.5044075,51.7588796 12.4752042,52.8153052 12.7526411,53.871732 C13.03006,54.928157 13.6068268,55.8892107 14.4829416,56.7548932 Z M6.44528,90.918 L7.86138,90.918 C8.47984667,90.918 8.95184667,90.6575867 9.27738,90.13676 L17.96878,76.22074 L13.62308,76.22074 L5.56638,89.16019 C5.27344667,89.58337 5.21648,89.9821333 5.39548,90.35648 C5.57454667,90.7308267 5.92448,90.918 6.44528,90.918 Z M10.44918,86.66996 L54.05278,86.66996 L54.05278,83.10551 L10.44918,83.10551 L10.44918,86.66996 Z M56.68948,90.918 L58.10548,90.918 C58.62628,90.918 58.96808,90.7308267 59.13088,90.35648 C59.2936133,89.9821333 59.2285133,89.58337 58.93558,89.16019 L50.87888,76.22074 L46.58208,76.22074 L55.27348,90.13676 C55.5989467,90.6575867 56.0709467,90.918 56.68948,90.918 Z" id="Shape"></path>
                </g>
            </g>
        </g>
    </g>
</svg>